SplineFontDB: 3.0
FontName: Annaheim
FullName: Annaheim
FamilyName: Annaheim
Weight: Book
Copyright: Copyright (c) 2010-12 by vernon adams. All rights reserved.
Version: 1.000
FONDName: Annaheim
ItalicAngle: 0
UnderlinePosition: -307
UnderlineWidth: 102
Ascent: 1638
Descent: 410
UFOAscent: 1308
UFODescent: -389
LayerCount: 2
Layer: 0 0 "Back"  1
Layer: 1 0 "Fore"  0
FSType: 0
OS2Version: 0
OS2_WeightWidthSlopeOnly: 0
OS2_UseTypoMetrics: 0
CreationTime: 1343716480
ModificationTime: 1343724530
PfmFamily: 33
TTFWeight: 400
TTFWidth: 5
LineGap: 0
VLineGap: 0
OS2TypoAscent: 1880
OS2TypoAOffset: 0
OS2TypoDescent: -465
OS2TypoDOffset: 0
OS2TypoLinegap: 0
OS2WinAscent: 1880
OS2WinAOffset: 0
OS2WinDescent: 465
OS2WinDOffset: 0
HheadAscent: 1880
HheadAOffset: 0
HheadDescent: -465
HheadDOffset: 0
OS2FamilyClass: 2048
OS2Vendor: 'newt'
Lookup: 260 0 0 "'mark' Mark Positioning lookup 0"  {"'mark' Mark Positioning lookup 0-1"  } []
MarkAttachClasses: 1
DEI: 91125
LangName: 1033 "" "" "" "" "" "Version 1.000" "" "Annaheim is a trademark of vernon adams." "vernon adams" "vernon adams" "Copyright (c) 2010 by vernon adams. All rights reserved." "" "" "" "http://scripts.sil.org/OFL" "" "" "" "Annaheim" 
PickledData: "(dp1
S'com.typemytype.robofont.compileSettings.autohint'
p2
I01
sS'com.typemytype.robofont.compileSettings.decompose'
p3
I01
sS'com.typemytype.robofont.foreground.layerStrokeColor'
p4
(F0.5
F0
F0.5
F0.69999999999999996
tp5
sS'com.typemytype.robofont.guides'
p6
((dp7
S'angle'
p8
I0
sS'name'
p9
NsS'magnetic'
p10
I5
sS'isGlobal'
p11
I1
sS'y'
I1000
sS'x'
I557
s(dp12
g8
I0
sg9
Nsg10
I5
sg11
I1
sS'y'
I893
sS'x'
I160
s(dp13
g8
I0
sg9
Nsg10
I5
sg11
I1
sS'y'
I91
sS'x'
I528
s(dp14
g8
I0
sg9
Nsg10
I5
sg11
I1
sS'y'
I1308
sS'x'
I160
s(dp15
g8
I0
sg9
Nsg10
I5
sg11
I1
sS'y'
I985
sS'x'
I1207
s(dp16
g8
I0
sg9
Nsg10
I5
sg11
I1
sS'y'
I1284
sS'x'
I854
s(dp17
g8
I0
sg9
Nsg10
I5
sg11
I1
sS'y'
I1196
sS'x'
I587
s(dp18
g8
I0
sg9
Nsg10
I5
sg11
I1
sS'y'
I-16
sS'x'
I590
stp19

StartChar: A
Encoding: 33 65 1
Width: 1163
VWidth: 0
Flags: W
PickledData: "(dp1
S'com.typemytype.robofont.layerData'
p2
(dp3
S'b'
(dp4
S'name'
p5
S'A'
sS'lib'
p6
(dp7
sS'unicodes'
p8
(tsS'width'
p9
I1163
sS'contours'
p10
(tsS'components'
p11
(tsS'anchors'
p12
(tsss."
AnchorPoint: "bot" 990 2.39999 basechar 0
AnchorPoint: "top" 591.25 1284 basechar 0
LayerCount: 2
Fore
SplineSet
936 0 m 1
 1055 0 l 1
 673 1284 l 1
 510 1284 l 1
 110 0 l 1
 239 0 l 1
 339 328 l 1
 839 328 l 1
 936 0 l 1
808 420 m 1
 369 420 l 1
 592 1171 l 1
 808 420 l 1
EndSplineSet
EndChar

StartChar: AE
Encoding: 132 198 2
Width: 1341
VWidth: 0
Flags: W
LayerCount: 2
Fore
SplineSet
823 649 m 1
 823 111 l 1
 1203 111 l 1
 1212 0 l 1
 691 0 l 1
 691 328 l 1
 338 328 l 1
 235 0 l 1
 109 0 l 1
 547 1374 l 1
 1160 1374 l 1
 1160 1262 l 1
 790 1262 l 1
 790 760 l 1
 1136 760 l 1
 1136 649 l 1
 823 649 l 1
373 442 m 1
 651 442 l 1
 651 1262 l 1
 628 1262 l 1
 373 442 l 1
EndSplineSet
EndChar

StartChar: Aring
Encoding: 131 197 7
Width: 1175
VWidth: 0
Flags: W
LayerCount: 2
Fore
SplineSet
602 1268 m 1
 818 440 l 1
 357 440 l 1
 566 1214 l 1
 602 1268 l 1
850 328 m 1
 940 0 l 1
 1066 0 l 1
 682 1374 l 1
 503 1374 l 1
 111 0 l 1
 234 0 l 1
 326 328 l 1
 850 328 l 1
586 1513 m 0
 694 1513 765 1583 765 1698 c 0
 765 1811 695 1880 588 1880 c 0
 481 1880 411 1813 411 1698 c 0
 411 1582 479 1513 586 1513 c 0
588 1804 m 0
 656 1804 690 1769 690 1698 c 0
 690 1630 652 1591 588 1591 c 0
 523 1591 484 1630 484 1698 c 0
 484 1769 519 1804 588 1804 c 0
EndSplineSet
EndChar

StartChar: Atilde
Encoding: 129 195 8
Width: 1175
VWidth: 0
Flags: W
LayerCount: 2
Fore
SplineSet
602 1268 m 1
 818 440 l 1
 357 440 l 1
 566 1214 l 1
 602 1268 l 1
850 328 m 1
 940 0 l 1
 1066 0 l 1
 682 1374 l 1
 503 1374 l 1
 111 0 l 1
 234 0 l 1
 326 328 l 1
 850 328 l 1
312 1675 m 1
 315 1679 l 1
 384 1632 l 1
 415 1674 452 1715 482 1715 c 0
 494 1715 509 1710 526 1699 c 2
 584 1663 l 1
 584 1663 589 1660 598 1654 c 2
 616 1643 l 1
 640 1638 672 1612 712 1612 c 0
 764 1612 824 1653 862 1746 c 1
 798 1791 l 1
 770 1750 734 1709 704 1709 c 0
 681 1709 620 1750 607 1758 c 0
 550 1791 507 1808 480 1808 c 0
 425 1808 363 1774 312 1675 c 1
EndSplineSet
EndChar

StartChar: B
Encoding: 34 66 9
Width: 1082
VWidth: 0
Flags: HW
PickledData: "(dp1
S'com.typemytype.robofont.layerData'
p2
(dp3
S'b'
(dp4
S'name'
p5
S'B'
sS'lib'
p6
(dp7
sS'unicodes'
p8
(tsS'width'
p9
I1082
sS'contours'
p10
(tsS'components'
p11
(tsS'anchors'
p12
(tsss."
AnchorPoint: "top" 526.25 1284 basechar 0
LayerCount: 2
Fore
SplineSet
510 723 m 2
 277 723 l 1
 277 1180 l 1
 494 1180 l 2
 701 1180 791 1132 791 971 c 0
 791 781 700 723 510 723 c 2
821 375 m 0
 821 142 694 104 474 104 c 2
 277 104 l 1
 277 625 l 1
 511 625 l 2
 712 625 821 555 821 375 c 0
709 687 m 1
 853 722 903 810 903 971 c 0
 903 1222 764 1284 470 1284 c 2
 149 1284 l 1
 149 0 l 1
 467 0 l 2
 780 0 949 65 949 377 c 0
 949 556 852 654 709 687 c 1
EndSplineSet
EndChar

StartChar: C
Encoding: 35 67 10
Width: 1086
VWidth: 0
Flags: HW
PickledData: "(dp1
S'com.typemytype.robofont.layerData'
p2
(dp3
S'b'
(dp4
S'name'
p5
S'C'
sS'lib'
p6
(dp7
S'anchors'
p8
(tsS'unicodes'
p9
(tsS'width'
p10
I1158
sS'contours'
p11
(tsS'components'
p12
(tsg5
S'O'
ssg9
(tsg10
I1086
sg11
((dp13
S'points'
p14
((dp15
S'segmentType'
p16
S'curve'
p17
sS'x'
F576
sS'smooth'
p18
I01
sS'y'
F92
s(dp19
S'y'
F92
sS'x'
F826
sg18
I00
s(dp20
S'y'
F264
sS'x'
F896
sg18
I00
s(dp21
g16
S'curve'
p22
sS'x'
F896
sg18
I01
sS'y'
F645
s(dp23
S'y'
F1030
sS'x'
F896
sg18
I00
s(dp24
S'y'
F1200
sS'x'
F823
sg18
I00
s(dp25
g16
S'curve'
p26
sS'x'
F576
sg18
I01
sS'y'
F1200
s(dp27
S'y'
F1200
sS'x'
F329
sg18
I00
s(dp28
S'y'
F1030
sS'x'
F256
sg18
I00
s(dp29
g16
S'curve'
p30
sS'x'
F256
sg18
I01
sS'y'
F645
s(dp31
S'y'
F264
sS'x'
F256
sg18
I00
s(dp32
S'y'
F92
sS'x'
F326
sg18
I00
stp33
s(dp34
g14
((dp35
g16
S'curve'
p36
sS'x'
F576
sg18
I01
sS'y'
F1308
s(dp37
S'y'
F1308
sS'x'
F925
sg18
I00
s(dp38
S'y'
F1065
sS'x'
F1024
sg18
I00
s(dp39
g16
S'curve'
p40
sS'x'
F1024
sg18
I01
sS'y'
F648
s(dp41
S'y'
F232
sS'x'
F1024
sg18
I00
s(dp42
S'y'
F-16
sS'x'
F937
sg18
I00
s(dp43
g16
S'curve'
p44
sS'x'
F576
sg18
I01
sS'y'
F-16
s(dp45
S'y'
F-16
sS'x'
F215
sg18
I00
s(dp46
S'y'
F232
sS'x'
F128
sg18
I00
s(dp47
g16
S'curve'
p48
sS'x'
F128
sg18
I01
sS'y'
F648
s(dp49
S'y'
F1065
sS'x'
F128
sg18
I00
s(dp50
S'y'
F1308
sS'x'
F227
sg18
I00
stp51
stp52
sg12
(tsg8
(tsss."
AnchorPoint: "bot" 612 0 basechar 0
AnchorPoint: "top" 596.25 1284 basechar 0
LayerCount: 2
Fore
SplineSet
258 640 m 0
 258 1093 361 1196 594 1196 c 0
 667 1196 744 1183 818 1152 c 1
 818 965 l 1
 930 965 l 1
 930 1223 l 1
 807 1280 695 1308 593 1308 c 0
 253 1308 130 1115 130 643 c 0
 130 145 288 -16 595 -16 c 0
 730 -16 845 11 958 72 c 1
 915 174 l 1
 801 117 693 96 608 96 c 0
 365 96 258 216 258 640 c 0
EndSplineSet
EndChar

StartChar: Ccedilla
Encoding: 133 199 11
Width: 1095
VWidth: 0
Flags: W
LayerCount: 2
Fore
SplineSet
963 131 m 1
 965 133 l 1
 910 231 l 1
 822 125 709 95 602 95 c 0
 348 95 257 301 257 685 c 0
 257 1109 360 1276 603 1276 c 0
 674 1276 743 1260 810 1229 c 1
 826 1168 837 1102 843 1032 c 1
 956 1057 l 1
 951 1115 925 1286 921 1317 c 1
 806 1369 699 1395 600 1395 c 0
 231 1395 130 1098 130 676 c 0
 130 192 277 -28 600 -28 c 0
 721 -28 794 3 873 34 c 1
 911 53 941 86 963 131 c 1
565 -122 m 1
 565 -121 l 1
 568 -111 572 -91 574 -82 c 1
 541 -82 508 -85 473 -92 c 1
 472 -188 l 1
 498 -191 520 -196 539 -202 c 1
 604 -202 639 -224 639 -288 c 0
 639 -345 609 -376 556 -376 c 2
 537 -376 l 1
 499 -373 470 -366 451 -355 c 1
 436 -435 l 1
 479 -453 525 -465 566 -465 c 0
 667 -465 734 -400 734 -284 c 0
 734 -177 666 -122 565 -122 c 1
EndSplineSet
EndChar

StartChar: D
Encoding: 36 68 12
Width: 1115
VWidth: 0
Flags: HW
PickledData: "(dp1
S'com.typemytype.robofont.guides'
p2
(tsS'com.typemytype.robofont.layerData'
p3
(dp4
S'b'
(dp5
S'name'
p6
S'D'
sS'lib'
p7
(dp8
sS'unicodes'
p9
(tsS'width'
p10
I1115
sS'contours'
p11
((dp12
S'points'
p13
((dp14
S'segmentType'
p15
S'curve'
p16
sS'x'
F697
sS'smooth'
p17
I01
sS'y'
F100
s(dp18
g15
S'line'
p19
sS'x'
F853
sg17
I00
sS'y'
F100
s(dp20
g15
S'line'
p21
sS'x'
F853
sg17
I00
sS'y'
F1180
s(dp22
g15
S'line'
p23
sS'x'
F697
sg17
I01
sS'y'
F1180
s(dp24
S'y'
F1180
sS'x'
F313
sg17
I00
s(dp25
S'y'
F1014
sS'x'
F277
sg17
I00
s(dp26
g15
S'curve'
p27
sS'x'
F277
sg17
I01
sS'y'
F647
s(dp28
S'y'
F253
sS'x'
F277
sg17
I00
s(dp29
S'y'
F100
sS'x'
F322
sg17
I00
stp30
s(dp31
g13
((dp32
g15
S'curve'
p33
sS'x'
F697
sg17
I01
sS'y'
F1284
s(dp34
g15
S'line'
p35
sS'x'
F981
sg17
I00
sS'y'
F1284
s(dp36
g15
S'line'
p37
sS'x'
F981
sg17
I00
sS'y'
F0
s(dp38
g15
S'line'
p39
sS'x'
F697
sg17
I01
sS'y'
F0
s(dp40
S'y'
F0
sS'x'
F243
sg17
I00
s(dp41
S'y'
F182
sS'x'
F149
sg17
I00
s(dp42
g15
S'curve'
p43
sS'x'
F149
sg17
I01
sS'y'
F647
s(dp44
S'y'
F1054
sS'x'
F149
sg17
I00
s(dp45
S'y'
F1284
sS'x'
F225
sg17
I00
stp46
stp47
sS'components'
p48
(tsS'anchors'
p49
(tsss."
AnchorPoint: "top" 556.25 1284 basechar 0
LayerCount: 2
Fore
SplineSet
433 1184 m 2
 277 1184 l 1
 277 104 l 1
 433 104 l 2
 817 104 853 270 853 637 c 0
 853 1031 808 1184 433 1184 c 2
433 0 m 2
 149 0 l 1
 149 1284 l 1
 433 1284 l 2
 887 1284 981 1102 981 637 c 0
 981 230 905 0 433 0 c 2
EndSplineSet
EndChar

StartChar: Delta
Encoding: 65537 8710 13
Width: 1082
VWidth: 0
Flags: W
LayerCount: 2
Fore
SplineSet
970 0 m 1
 640 1339 l 1
 464 1339 l 1
 113 0 l 1
 970 0 l 1
246 102 m 1
 539 1245 l 1
 563 1245 l 1
 838 102 l 1
 246 102 l 1
EndSplineSet
EndChar

StartChar: E
Encoding: 37 69 14
Width: 971
VWidth: 0
Flags: HW
PickledData: "(dp1
S'com.typemytype.robofont.layerData'
p2
(dp3
S'b'
(dp4
S'name'
p5
S'E'
sS'lib'
p6
(dp7
sS'unicodes'
p8
(tsS'width'
p9
I971
sS'contours'
p10
(tsS'components'
p11
(tsS'anchors'
p12
(tsss."
AnchorPoint: "bot" 572 0 basechar 0
AnchorPoint: "top" 536.25 1284 basechar 0
LayerCount: 2
Fore
SplineSet
277 649 m 1
 277 104 l 1
 822 104 l 1
 838 0 l 1
 149 0 l 1
 149 1284 l 1
 834 1284 l 1
 812 1180 l 1
 277 1180 l 1
 277 745 l 1
 778 745 l 1
 778 649 l 1
 277 649 l 1
EndSplineSet
EndChar

StartChar: Euro
Encoding: 409 8364 19
Width: 1147
VWidth: 0
Flags: W
LayerCount: 2
Fore
SplineSet
205 679 m 1
 202 679 l 1
 202 597 l 1
 123 597 l 1
 123 499 l 1
 209 499 l 1
 240 184 354 -26 654 -26 c 0
 748 -26 845 -8 940 30 c 0
 975 44 1003 74 1023 114 c 1
 969 204 l 1
 893 115 758 96 668 96 c 0
 454 96 365 245 337 499 c 1
 772 499 l 1
 772 597 l 1
 332 597 l 1
 331 630 330 657 330 678 c 0
 330 711 331 734 332 747 c 1
 772 747 l 1
 772 843 l 1
 337 843 l 1
 360 1082 440 1246 663 1246 c 0
 727 1246 873 1234 956 1141 c 1
 1015 1231 l 1
 996 1264 972 1290 943 1309 c 1
 836 1347 741 1366 657 1366 c 0
 362 1366 241 1159 212 844 c 1
 126 844 l 1
 126 748 l 1
 207 748 l 1
 206 735 205 712 205 679 c 1
EndSplineSet
EndChar

StartChar: F
Encoding: 38 70 20
Width: 927
VWidth: 0
Flags: HW
PickledData: "(dp1
S'com.typemytype.robofont.layerData'
p2
(dp3
S'b'
(dp4
S'name'
p5
S'F'
sS'lib'
p6
(dp7
sS'unicodes'
p8
(tsS'width'
p9
I927
sS'contours'
p10
(tsS'components'
p11
(tsS'anchors'
p12
(tsss."
LayerCount: 2
Fore
SplineSet
277 697 m 1
 733 697 l 1
 733 603 l 1
 277 603 l 1
 277 0 l 1
 149 0 l 1
 149 1284 l 1
 816 1284 l 1
 797 1180 l 1
 277 1180 l 1
 277 697 l 1
EndSplineSet
EndChar

StartChar: G
Encoding: 39 71 21
Width: 1133
VWidth: 0
Flags: HW
PickledData: "(dp1
S'com.typemytype.robofont.layerData'
p2
(dp3
S'b'
(dp4
S'name'
p5
S'G'
sS'lib'
p6
(dp7
sS'unicodes'
p8
(tsS'width'
p9
I1133
sS'contours'
p10
((dp11
S'points'
p12
((dp13
S'segmentType'
p14
S'curve'
p15
sS'x'
F256
sS'smooth'
p16
I01
sS'y'
F640
s(dp17
S'y'
F1093
sS'x'
F256
sg16
I00
s(dp18
S'y'
F1205
sS'x'
F359
sg16
I00
s(dp19
g14
S'curve'
p20
sS'x'
F592
sg16
I01
sS'y'
F1205
s(dp21
S'y'
F1205
sS'x'
F665
sg16
I00
s(dp22
S'y'
F1185
sS'x'
F742
sg16
I00
s(dp23
g14
S'curve'
p24
sS'x'
F816
sg16
I00
sS'y'
F1154
s(dp25
g14
S'line'
p26
sS'x'
F816
sg16
I00
sS'y'
F965
s(dp27
g14
S'line'
p28
sS'x'
F928
sg16
I00
sS'y'
F965
s(dp29
g14
S'line'
p30
sS'x'
F928
sg16
I00
sS'y'
F1223
s(dp31
S'y'
F1280
sS'x'
F805
sg16
I00
s(dp32
S'y'
F1308
sS'x'
F693
sg16
I00
s(dp33
g14
S'curve'
p34
sS'x'
F591
sg16
I01
sS'y'
F1308
s(dp35
S'y'
F1308
sS'x'
F251
sg16
I00
s(dp36
S'y'
F1115
sS'x'
F128
sg16
I00
s(dp37
g14
S'curve'
p38
sS'x'
F128
sg16
I01
sS'y'
F643
s(dp39
S'y'
F145
sS'x'
F128
sg16
I00
s(dp40
S'y'
F-16
sS'x'
F271
sg16
I00
s(dp41
g14
S'curve'
p42
sS'x'
F585
sg16
I01
sS'y'
F-16
s(dp43
S'y'
F-16
sS'x'
F693
sg16
I00
s(dp44
S'y'
F11
sS'x'
F843
sg16
I00
s(dp45
g14
S'curve'
p46
sS'x'
F956
sg16
I00
sS'y'
F72
s(dp47
g14
S'line'
p48
sS'x'
F913
sg16
I00
sS'y'
F174
s(dp49
S'y'
F117
sS'x'
F799
sg16
I00
s(dp50
S'y'
F92
sS'x'
F677
sg16
I00
s(dp51
g14
S'curve'
p52
sS'x'
F592
sg16
I01
sS'y'
F92
s(dp53
S'y'
F92
sS'x'
F349
sg16
I00
s(dp54
S'y'
F216
sS'x'
F256
sg16
I00
stp55
stp56
sS'components'
p57
(tsS'anchors'
p58
(tsss."
AnchorPoint: "bot" 622 0 basechar 0
AnchorPoint: "top" 616.25 1284 basechar 0
LayerCount: 2
Fore
SplineSet
994 88 m 1
 994 666 l 1
 603 666 l 1
 603 551 l 1
 866 551 l 1
 866 152 l 1
 795 119 704 96 613 96 c 0
 331 96 258 251 258 652 c 0
 258 1064 341 1196 609 1196 c 0
 696 1196 814 1180 902 1131 c 1
 929 1235 l 1
 844 1275 718 1308 610 1308 c 0
 281 1308 130 1159 130 649 c 0
 130 194 239 -16 606 -16 c 0
 808 -16 928 54 994 88 c 1
EndSplineSet
EndChar

StartChar: H
Encoding: 40 72 22
Width: 1130
VWidth: 0
Flags: W
PickledData: "(dp1
S'com.typemytype.robofont.layerData'
p2
(dp3
S'b'
(dp4
S'name'
p5
S'H'
sS'lib'
p6
(dp7
sS'unicodes'
p8
(tsS'width'
p9
I1130
sS'contours'
p10
(tsS'components'
p11
(tsS'anchors'
p12
(tsss."
AnchorPoint: "bot" 572 0 basechar 0
AnchorPoint: "top" 566.25 1284 basechar 0
LayerCount: 2
Fore
SplineSet
853 1284 m 1
 981 1284 l 1
 981 0 l 1
 853 0 l 1
 853 615 l 1
 277 615 l 1
 277 0 l 1
 149 0 l 1
 149 1284 l 1
 277 1284 l 1
 277 720 l 1
 853 720 l 1
 853 1284 l 1
EndSplineSet
EndChar

StartChar: I
Encoding: 41 73 23
Width: 773
VWidth: 0
Flags: W
PickledData: "(dp1
S'com.typemytype.robofont.layerData'
p2
(dp3
S'b'
(dp4
S'name'
p5
S'I'
sS'lib'
p6
(dp7
sS'unicodes'
p8
(tsS'width'
p9
I773
sS'contours'
p10
(tsS'components'
p11
(tsS'anchors'
p12
(tsss."
HStem: 0 104<134 328 456 644> 1180 104<134 328 456 640>
VStem: 328 128<104 1180>
AnchorPoint: "bot" 392 0 basechar 0
AnchorPoint: "top" 401.25 1284 basechar 0
LayerCount: 2
Fore
SplineSet
456 1180 m 1
 456 104 l 1
 644 104 l 1
 644 0 l 1
 134 0 l 1
 134 104 l 1
 328 104 l 1
 328 1180 l 1
 134 1180 l 1
 134 1284 l 1
 640 1284 l 1
 640 1180 l 1
 456 1180 l 1
EndSplineSet
EndChar

StartChar: J
Encoding: 42 74 28
Width: 698
VWidth: 0
Flags: HW
PickledData: "(dp1
S'com.typemytype.robofont.layerData'
p2
(dp3
S'b'
(dp4
S'name'
p5
S'J'
sS'lib'
p6
(dp7
sS'unicodes'
p8
(tsS'width'
p9
I698
sS'contours'
p10
(tsS'components'
p11
(tsS'anchors'
p12
(tsss."
AnchorPoint: "top" 356.25 1284 basechar 0
LayerCount: 2
Fore
SplineSet
548 1284 m 1
 196 1284 l 1
 196 1180 l 1
 420 1180 l 1
 420 91 l 2
 420 -62 381 -127 268 -127 c 0
 221 -127 164 -116 116 -99 c 1
 101 -200 l 1
 156 -221 220 -232 277 -232 c 0
 449 -232 548 -155 548 91 c 2
 548 1284 l 1
EndSplineSet
EndChar

StartChar: K
Encoding: 43 75 29
Width: 1090
VWidth: 0
Flags: HW
PickledData: "(dp1
S'com.typemytype.robofont.layerData'
p2
(dp3
S'b'
(dp4
S'name'
p5
S'K'
sS'lib'
p6
(dp7
sS'unicodes'
p8
(tsS'width'
p9
I1090
sS'contours'
p10
(tsS'components'
p11
(tsS'anchors'
p12
(tsss."
AnchorPoint: "bot" 572 0 basechar 0
AnchorPoint: "top" 566.25 1284 basechar 0
LayerCount: 2
Fore
SplineSet
277 0 m 1
 277 480 l 1
 437 658 l 1
 832 0 l 1
 973 0 l 1
 536 721 l 1
 961 1284 l 1
 811 1284 l 1
 418 778 l 1
 277 609 l 1
 277 1284 l 1
 149 1284 l 1
 149 0 l 1
 277 0 l 1
EndSplineSet
EndChar

StartChar: L
Encoding: 44 76 30
Width: 890
VWidth: 0
Flags: HW
PickledData: "(dp1
S'com.typemytype.robofont.layerData'
p2
(dp3
S'b'
(dp4
S'name'
p5
S'L'
sS'lib'
p6
(dp7
sS'unicodes'
p8
(tsS'width'
p9
I890
sS'contours'
p10
(tsS'components'
p11
(tsS'anchors'
p12
(tsss."
AnchorPoint: "bot" 572 0 basechar 0
AnchorPoint: "top" 566.25 1284 basechar 0
LayerCount: 2
Fore
SplineSet
277 1284 m 1
 277 104 l 1
 766 104 l 1
 786 0 l 1
 149 0 l 1
 149 1284 l 1
 277 1284 l 1
EndSplineSet
EndChar

StartChar: M
Encoding: 45 77 31
Width: 1356
VWidth: 0
Flags: HW
PickledData: "(dp1
S'com.typemytype.robofont.layerData'
p2
(dp3
S'b'
(dp4
S'name'
p5
S'M'
sS'lib'
p6
(dp7
sS'unicodes'
p8
(tsS'width'
p9
I1356
sS'contours'
p10
(tsS'components'
p11
(tsS'anchors'
p12
(tsss."
AnchorPoint: "top" 685.25 1284 basechar 0
LayerCount: 2
Fore
SplineSet
1010 1089 m 1
 1105 0 l 1
 1223 0 l 1
 1114 1284 l 1
 973 1284 l 1
 679 582 l 1
 377 1284 l 1
 235 1284 l 1
 135 0 l 1
 253 0 l 1
 339 1091 l 1
 622 438 l 1
 737 438 l 1
 1010 1089 l 1
EndSplineSet
EndChar

StartChar: N
Encoding: 46 78 32
Width: 1130
VWidth: 0
Flags: HW
PickledData: "(dp1
S'com.typemytype.robofont.layerData'
p2
(dp3
S'b'
(dp4
S'name'
p5
S'N'
sS'lib'
p6
(dp7
sS'unicodes'
p8
(tsS'width'
p9
I1130
sS'contours'
p10
(tsS'components'
p11
(tsS'anchors'
p12
(tsss."
AnchorPoint: "top" 596.25 1284 basechar 0
LayerCount: 2
Fore
SplineSet
869 1284 m 1
 981 1284 l 1
 981 0 l 1
 854 0 l 1
 262 1095 l 1
 262 0 l 1
 149 0 l 1
 149 1284 l 1
 281 1284 l 1
 869 211 l 1
 869 1284 l 1
EndSplineSet
EndChar

StartChar: Ntilde
Encoding: 143 209 33
Width: 1138
VWidth: 0
Flags: W
LayerCount: 2
Fore
SplineSet
537 930 m 2
 280 1374 l 1
 151 1374 l 1
 151 0 l 1
 266 0 l 1
 266 1167 l 1
 269 1167 l 1
 382 971 l 2
 474 812 798 253 826 205 c 1
 863 0 l 1
 988 0 l 1
 988 1374 l 1
 872 1374 l 1
 872 352 l 1
 869 352 l 1
 793 487 682 679 537 930 c 2
298 1675 m 1
 297 1679 l 1
 364 1632 l 1
 402 1682 430 1715 461 1715 c 0
 473 1715 488 1709 505 1699 c 2
 564 1663 l 2
 567 1662 584 1651 588 1648 c 2
 616 1633 l 1
 642 1624 666 1612 692 1612 c 0
 748 1612 802 1651 843 1746 c 1
 778 1791 l 1
 740 1735 712 1709 686 1709 c 0
 666 1709 648 1723 589 1758 c 0
 532 1791 488 1808 460 1808 c 0
 394 1808 340 1764 298 1675 c 1
EndSplineSet
EndChar

StartChar: O
Encoding: 47 79 34
Width: 1160
VWidth: 0
Flags: W
PickledData: "(dp1
S'name'
p2
S'O'
sS'com.typemytype.robofont.layerData'
p3
(dp4
S'b'
(dp5
g2
S'O'
sS'lib'
p6
(dp7
sS'unicodes'
p8
(tsS'width'
p9
I1160
sS'contours'
p10
(tsS'components'
p11
(tsS'anchors'
p12
(tsssg8
(tsg9
I1158
sg10
(tsg11
(tsg12
(tsS'com.typemytype.robofont.guides'
p13
(ts."
HStem: -16 112<406.967 753.033> 1196 112<409.849 750.151>
VStem: 132 128<282.452 1011.44> 900 128<282.452 1011.44>
AnchorPoint: "bot" 581 0 basechar 0
AnchorPoint: "top" 581.25 1284 basechar 0
LayerCount: 2
Fore
SplineSet
580 96 m 0
 830 96 900 264 900 645 c 0
 900 1030 827 1196 580 1196 c 0
 333 1196 260 1030 260 645 c 0
 260 264 330 96 580 96 c 0
580 1308 m 0
 929 1308 1028 1065 1028 648 c 0
 1028 232 941 -16 580 -16 c 0
 219 -16 132 232 132 648 c 0
 132 1065 231 1308 580 1308 c 0
EndSplineSet
EndChar

StartChar: Omega
Encoding: 65538 937 40
Width: 1055
VWidth: 0
Flags: W
LayerCount: 2
Fore
SplineSet
804 660 m 1
 805 659 l 1
 805 413 740 158 580 102 c 1
 580 0 l 1
 899 0 l 1
 899 102 l 1
 716 102 l 1
 863 214 913 396 913 710 c 0
 913 1085 846 1363 526 1363 c 0
 194 1363 139 1071 139 675 c 0
 139 391 193 211 336 103 c 1
 336 93 l 1
 165 93 l 1
 165 1 l 1
 473 1 l 1
 473 103 l 1
 344 153 275 318 251 570 c 1
 246 763 l 1
 246 1029 296 1249 526 1256 c 1
 772 1245 804 1025 804 660 c 1
EndSplineSet
EndChar

StartChar: P
Encoding: 48 80 43
Width: 1044
VWidth: 0
Flags: HW
PickledData: "(dp1
S'com.typemytype.robofont.layerData'
p2
(dp3
S'b'
(dp4
S'name'
p5
S'P'
sS'lib'
p6
(dp7
sS'unicodes'
p8
(tsS'width'
p9
I1044
sS'contours'
p10
(tsS'components'
p11
(tsS'anchors'
p12
(tsss."
AnchorPoint: "top" 514.25 1284 basechar 0
LayerCount: 2
Fore
SplineSet
498 1289 m 0
 461 1289 421 1288 380 1284 c 2
 149 1264 l 1
 149 0 l 1
 277 0 l 1
 277 522 l 1
 399 522 l 2
 744 522 917 594 917 902 c 0
 917 1197 757 1289 498 1289 c 0
277 622 m 1
 277 1173 l 1
 402 1184 l 2
 439 1187 474 1187 506 1187 c 0
 694 1187 789 1124 789 900 c 0
 789 644 666 622 376 622 c 2
 277 622 l 1
EndSplineSet
EndChar

StartChar: Q
Encoding: 49 81 44
Width: 1160
VWidth: 0
Flags: W
PickledData: "(dp1
S'com.typemytype.robofont.layerData'
p2
(dp3
S'b'
(dp4
S'name'
p5
S'Q'
sS'lib'
p6
(dp7
sS'unicodes'
p8
(tsS'width'
p9
I1160
sS'contours'
p10
(tsS'components'
p11
(tsS'anchors'
p12
(tsss."
LayerCount: 2
Fore
SplineSet
936 -159 m 1
 1007 -104 l 1
 875 80 l 1
 993 188 1028 384 1028 648 c 0
 1028 1065 929 1308 580 1308 c 0
 231 1308 132 1065 132 648 c 0
 132 232 219 -16 580 -16 c 0
 670 -16 742 -1 801 29 c 1
 936 -159 l 1
580 96 m 0
 330 96 260 264 260 645 c 0
 260 1030 333 1196 580 1196 c 0
 827 1196 900 1030 900 645 c 0
 900 419 875 267 803 180 c 1
 681 351 l 1
 610 295 l 1
 733 124 l 1
 692 102 641 96 580 96 c 0
EndSplineSet
EndChar

StartChar: R
Encoding: 50 82 45
Width: 1102
VWidth: 0
Flags: W
PickledData: "(dp1
S'com.typemytype.robofont.layerData'
p2
(dp3
S'b'
(dp4
S'name'
p5
S'R'
sS'lib'
p6
(dp7
sS'unicodes'
p8
(tsS'width'
p9
I1102
sS'contours'
p10
(tsS'components'
p11
(tsS'anchors'
p12
(tsss."
HStem: 567 95<364 542.746> 1180 104<396 694.172>
VStem: 789 128<745.368 1093.94>
AnchorPoint: "bot" 572 0 basechar 0
AnchorPoint: "top" 517.25 1284 basechar 0
LayerCount: 2
Fore
SplineSet
975 41 m 1
 797 293 730 444 669 591 c 1
 834 629 917 722 917 922 c 0
 917 1238 743 1284 402 1284 c 2
 149 1284 l 1
 149 0 l 1
 277 0 l 1
 277 567 l 1
 387 567 l 2
 444 567 497 569 545 573 c 1
 651 321 731 167 868 -33 c 1
 975 41 l 1
789 920 m 0
 789 697 689 662 364 662 c 2
 277 662 l 1
 277 1180 l 1
 396 1180 l 2
 656 1180 789 1166 789 920 c 0
EndSplineSet
EndChar

StartChar: S
Encoding: 51 83 46
Width: 1039
VWidth: 0
Flags: HW
PickledData: "(dp1
S'com.typemytype.robofont.layerData'
p2
(dp3
S'b'
(dp4
S'name'
p5
S'S'
sS'lib'
p6
(dp7
S'anchors'
p8
(tsS'unicodes'
p9
(tsS'width'
p10
I1158
sS'contours'
p11
(tsS'components'
p12
(tsg5
S'O'
ssg9
(tsg10
I1039
sg11
((dp13
S'points'
p14
((dp15
S'segmentType'
p16
S'curve'
p17
sS'x'
F548
sS'smooth'
p18
I01
sS'y'
F1308
s(dp19
S'y'
F1308
sS'x'
F897
sg18
I00
s(dp20
S'y'
F1065
sS'x'
F996
sg18
I00
s(dp21
g16
S'curve'
p22
sS'x'
F996
sg18
I01
sS'y'
F648
s(dp23
S'y'
F232
sS'x'
F996
sg18
I00
s(dp24
S'y'
F-16
sS'x'
F909
sg18
I00
s(dp25
g16
S'curve'
p26
sS'x'
F548
sg18
I01
sS'y'
F-16
s(dp27
S'y'
F-16
sS'x'
F187
sg18
I00
s(dp28
S'y'
F232
sS'x'
F100
sg18
I00
s(dp29
g16
S'curve'
p30
sS'x'
F100
sg18
I01
sS'y'
F648
s(dp31
S'y'
F1065
sS'x'
F100
sg18
I00
s(dp32
S'y'
F1308
sS'x'
F199
sg18
I00
stp33
s(dp34
g14
((dp35
g16
S'curve'
p36
sS'x'
F548
sg18
I01
sS'y'
F92
s(dp37
S'y'
F92
sS'x'
F798
sg18
I00
s(dp38
S'y'
F264
sS'x'
F868
sg18
I00
s(dp39
g16
S'curve'
p40
sS'x'
F868
sg18
I01
sS'y'
F645
s(dp41
S'y'
F1030
sS'x'
F868
sg18
I00
s(dp42
S'y'
F1200
sS'x'
F795
sg18
I00
s(dp43
g16
S'curve'
p44
sS'x'
F548
sg18
I01
sS'y'
F1200
s(dp45
S'y'
F1200
sS'x'
F301
sg18
I00
s(dp46
S'y'
F1030
sS'x'
F228
sg18
I00
s(dp47
g16
S'curve'
p48
sS'x'
F228
sg18
I01
sS'y'
F645
s(dp49
S'y'
F264
sS'x'
F228
sg18
I00
s(dp50
S'y'
F92
sS'x'
F298
sg18
I00
stp51
stp52
sg12
(tsg8
(tsss."
AnchorPoint: "bot" 516 0 basechar 0
AnchorPoint: "top" 546.25 1284 basechar 0
LayerCount: 2
Fore
SplineSet
851 1132 m 1
 874 1239 l 1
 765 1284 647 1308 529 1308 c 0
 314 1308 137 1213 137 969 c 0
 137 786 241 701 408 644 c 2
 526 604 l 2
 693 547 777 509 777 336 c 0
 777 149 649 96 493 96 c 0
 382 96 257 125 165 173 c 1
 137 68 l 1
 243 11 384 -16 513 -16 c 0
 745 -16 905 97 905 342 c 0
 905 616 729 665 563 722 c 2
 449 761 l 2
 296 813 265 867 265 972 c 0
 265 1143 391 1196 546 1196 c 0
 673 1196 766 1164 851 1132 c 1
EndSplineSet
EndChar

StartChar: T
Encoding: 52 84 47
Width: 1009
VWidth: 0
Flags: HW
PickledData: "(dp1
S'com.typemytype.robofont.layerData'
p2
(dp3
S'b'
(dp4
S'name'
p5
S'T'
sS'lib'
p6
(dp7
sS'unicodes'
p8
(tsS'width'
p9
I1009
sS'contours'
p10
(tsS'components'
p11
(tsS'anchors'
p12
(tsss."
AnchorPoint: "bot" 509 0 basechar 0
AnchorPoint: "top" 505.25 1284 basechar 0
LayerCount: 2
Fore
SplineSet
95 1180 m 1
 95 1284 l 1
 916 1284 l 1
 916 1180 l 1
 567 1180 l 1
 567 0 l 1
 439 0 l 1
 439 1180 l 1
 95 1180 l 1
EndSplineSet
EndChar

StartChar: U
Encoding: 53 85 48
Width: 1119
VWidth: 0
Flags: HW
PickledData: "(dp1
S'com.typemytype.robofont.layerData'
p2
(dp3
S'b'
(dp4
S'name'
p5
S'U'
sS'lib'
p6
(dp7
sS'unicodes'
p8
(tsS'width'
p9
I1119
sS'contours'
p10
(tsS'components'
p11
(tsS'anchors'
p12
(tsss."
AnchorPoint: "bot" 572 0 basechar 0
AnchorPoint: "top" 578.25 1284 basechar 0
LayerCount: 2
Fore
SplineSet
559 96 m 0
 866 96 847 290 847 635 c 2
 847 1284 l 1
 975 1284 l 1
 975 635 l 2
 975 224 945 -16 559 -16 c 0
 173 -16 143 224 143 635 c 2
 143 1284 l 1
 271 1284 l 1
 271 635 l 2
 271 290 252 96 559 96 c 0
EndSplineSet
EndChar

StartChar: V
Encoding: 54 86 53
Width: 1100
VWidth: 0
Flags: W
PickledData: "(dp1
S'com.typemytype.robofont.layerData'
p2
(dp3
S'b'
(dp4
S'name'
p5
S'V'
sS'lib'
p6
(dp7
sS'unicodes'
p8
(tsS'width'
p9
I1100
sS'contours'
p10
(tsS'components'
p11
(tsS'anchors'
p12
(tsss."
LayerCount: 2
Fore
SplineSet
234 1285 m 1
 102 1285 l 1
 471 0 l 1
 629 0 l 1
 998 1285 l 1
 863 1285 l 1
 748 838 639 468 550 134 c 1
 461 468 349 838 234 1285 c 1
EndSplineSet
EndChar

StartChar: W
Encoding: 55 87 54
Width: 1389
VWidth: 0
Flags: HW
PickledData: "(dp1
S'com.typemytype.robofont.layerData'
p2
(dp3
S'b'
(dp4
S'name'
p5
S'W'
sS'lib'
p6
(dp7
sS'unicodes'
p8
(tsS'width'
p9
I1389
sS'contours'
p10
(tsS'components'
p11
(tsS'anchors'
p12
(tsss."
AnchorPoint: "top" 686.25 1284 basechar 0
LayerCount: 2
Fore
SplineSet
402 178 m 1
 244 1284 l 1
 118 1284 l 1
 310 0 l 1
 451 0 l 1
 694 756 l 1
 936 0 l 1
 1078 0 l 1
 1270 1284 l 1
 1144 1284 l 1
 994 176 l 1
 751 924 l 1
 636 924 l 1
 402 178 l 1
EndSplineSet
EndChar

StartChar: X
Encoding: 56 88 55
Width: 1029
VWidth: 0
Flags: W
LayerCount: 2
Fore
SplineSet
140 1284 m 1
 444 658 l 1
 125 -1 l 1
 246 -1 l 1
 516 566 l 1
 785 -1 l 1
 912 -1 l 1
 582 657 l 1
 884 1284 l 1
 766 1284 l 1
 516 745 l 1
 264 1284 l 1
 140 1284 l 1
EndSplineSet
EndChar

StartChar: Y
Encoding: 57 89 56
Width: 1075
VWidth: 0
Flags: HW
PickledData: "(dp1
S'com.typemytype.robofont.layerData'
p2
(dp3
S'b'
(dp4
S'name'
p5
S'Y'
sS'lib'
p6
(dp7
sS'unicodes'
p8
(tsS'width'
p9
I1075
sS'contours'
p10
(tsS'components'
p11
(tsS'anchors'
p12
(tsss."
AnchorPoint: "top" 556.25 1284 basechar 0
LayerCount: 2
Fore
SplineSet
474 586 m 1
 474 0 l 1
 602 0 l 1
 602 588 l 1
 986 1284 l 1
 840 1284 l 1
 538 711 l 1
 232 1284 l 1
 90 1284 l 1
 474 586 l 1
EndSplineSet
EndChar

StartChar: Z
Encoding: 58 90 58
Width: 1022
VWidth: 0
Flags: HW
PickledData: "(dp1
S'com.typemytype.robofont.layerData'
p2
(dp3
S'b'
(dp4
S'name'
p5
S'Z'
sS'lib'
p6
(dp7
sS'unicodes'
p8
(tsS'width'
p9
I1022
sS'contours'
p10
(tsS'components'
p11
(tsS'anchors'
p12
(tsss."
AnchorPoint: "bot" 572 0 basechar 0
AnchorPoint: "top" 539.25 1284 basechar 0
LayerCount: 2
Fore
SplineSet
897 104 m 1
 288 104 l 1
 866 1176 l 1
 850 1284 l 1
 160 1284 l 1
 160 1180 l 1
 719 1180 l 1
 129 98 l 1
 150 0 l 1
 897 0 l 1
 897 104 l 1
EndSplineSet
EndChar

StartChar: a
Encoding: 65 97 59
Width: 981
VWidth: 0
Flags: W
PickledData: "(dp1
S'com.typemytype.robofont.layerData'
p2
(dp3
S'b'
(dp4
S'name'
p5
S'a'
sS'lib'
p6
(dp7
sS'unicodes'
p8
(tsS'width'
p9
I981
sS'contours'
p10
((dp11
S'points'
p12
((dp13
S'segmentType'
p14
S'curve'
p15
sS'x'
F202
sS'smooth'
p16
I00
sS'y'
F951
s(dp17
g14
S'line'
p18
sS'x'
F224
sg16
I00
sS'y'
F845
s(dp19
S'y'
F876
sS'x'
F325
sg16
I00
s(dp20
S'y'
F893
sS'x'
F419
sg16
I00
s(dp21
g14
S'curve'
p22
sS'x'
F484
sg16
I01
sS'y'
F893
s(dp23
S'y'
F893
sS'x'
F646
sg16
I00
s(dp24
S'y'
F828
sS'x'
F698
sg16
I00
s(dp25
g14
S'curve'
p26
sS'x'
F698
sg16
I00
sS'y'
F567
s(dp27
S'y'
F567
sS'x'
F583
sg16
I00
s(dp28
S'y'
F567
sS'x'
F575
sg16
I00
s(dp29
g14
S'curve'
p30
sS'x'
F477
sg16
I01
sS'y'
F562
s(dp31
S'y'
F547
sS'x'
F191
sg16
I00
s(dp32
S'y'
F433
sS'x'
F122
sg16
I00
s(dp33
g14
S'curve'
p34
sS'x'
F122
sg16
I01
sS'y'
F288
s(dp35
S'y'
F89
sS'x'
F122
sg16
I00
s(dp36
S'y'
F-16
sS'x'
F254
sg16
I00
s(dp37
g14
S'curve'
p38
sS'x'
F438
sg16
I01
sS'y'
F-16
s(dp39
S'y'
F-16
sS'x'
F545
sg16
I00
s(dp40
S'y'
F25
sS'x'
F666
sg16
I00
s(dp41
g14
S'curve'
p42
sS'x'
F711
sg16
I00
sS'y'
F61
s(dp43
g14
S'line'
p44
sS'x'
F731
sg16
I00
sS'y'
F-5
s(dp45
g14
S'line'
p46
sS'x'
F826
sg16
I00
sS'y'
F2
s(dp47
S'y'
F2
sS'x'
F825
sg16
I00
s(dp48
S'y'
F172
sS'x'
F826
sg16
I00
s(dp49
g14
S'curve'
p50
sS'x'
F826
sg16
I01
sS'y'
F209
s(dp51
g14
S'line'
p52
sS'x'
F826
sg16
I01
sS'y'
F623
s(dp53
S'y'
F917
sS'x'
F826
sg16
I00
s(dp54
S'y'
F1000
sS'x'
F684
sg16
I00
s(dp55
g14
S'curve'
p56
sS'x'
F509
sg16
I01
sS'y'
F1000
s(dp57
S'y'
F1000
sS'x'
F441
sg16
I00
s(dp58
S'y'
F985
sS'x'
F309
sg16
I00
stp59
s(dp60
g12
((dp61
g14
S'curve'
p62
sS'x'
F250
sg16
I01
sS'y'
F285
s(dp63
S'y'
F475
sS'x'
F250
sg16
I00
s(dp64
S'y'
F480
sS'x'
F386
sg16
I00
s(dp65
g14
S'curve'
p66
sS'x'
F698
sg16
I00
sS'y'
F480
s(dp67
g14
S'line'
p68
sS'x'
F698
sg16
I00
sS'y'
F151
s(dp69
S'y'
F115
sS'x'
F643
sg16
I00
s(dp70
S'y'
F87
sS'x'
F547
sg16
I00
s(dp71
g14
S'curve'
p72
sS'x'
F459
sg16
I01
sS'y'
F87
s(dp73
S'y'
F87
sS'x'
F319
sg16
I00
s(dp74
S'y'
F140
sS'x'
F250
sg16
I00
stp75
stp76
sS'components'
p77
(tsS'anchors'
p78
(tsss."
HStem: -16 107<302.427 653.123> -5 7<825 826> 473 94<352.889 642> 893 107<227.679 633.506>
VStem: 122 120<151.601 385.573> 698 128<131.642 209 567 823.197>
AnchorPoint: "bot" 772 0 basechar 0
AnchorPoint: "top" 508 985 basechar 0
LayerCount: 2
Fore
SplineSet
202 951 m 1x7c
 224 845 l 1
 325 876 419 893 484 893 c 0
 646 893 698 828 698 567 c 1
 652 567 635 567 610 567 c 0
 236 567 122 429 122 284 c 0
 122 85 254 -16 438 -16 c 0xbc
 545 -16 666 25 711 61 c 1
 731 -5 l 1
 826 2 l 2
 825 2 826 172 826 209 c 2
 826 623 l 2
 826 917 684 1000 509 1000 c 0
 441 1000 309 985 202 951 c 1x7c
242 278 m 0
 242 455 475 473 642 473 c 0
 662 473 676 473 698 473 c 1
 698 151 l 1
 643 115 546 91 458 91 c 0
 318 91 242 153 242 278 c 0
EndSplineSet
EndChar

StartChar: ae
Encoding: 164 230 63
Width: 1289
VWidth: 0
Flags: W
LayerCount: 2
Fore
SplineSet
425 571 m 2
 430 571 l 1
 222 565 131 466 131 272 c 0
 131 76 229 -23 378 -23 c 0
 503 -23 592 28 645 131 c 1
 692 28 774 -23 890 -23 c 0
 961 -23 1105 8 1146 109 c 1
 1092 186 l 1
 1081 158 1067 138 1048 127 c 1
 983 101 928 88 882 88 c 0
 834 88 796 102 776 129 c 0
 723 202 696 312 690 455 c 1
 1149 455 l 1
 1153 563 l 1
 1153 871 1067 1000 874 1000 c 0
 769 1000 695 955 653 865 c 1
 631 951 555 994 426 994 c 0
 297 994 208 952 158 869 c 1
 217 787 l 1
 256 846 332 879 421 879 c 0
 440 879 477 870 487 868 c 1
 577 863 577 807 577 575 c 1
 558 572 507 571 425 571 c 2
390 87 m 1
 390 88 l 1
 281 88 243 147 243 279 c 0
 243 417 311 463 455 463 c 0
 475 463 493 463 510 463 c 0
 532 463 553 464 577 468 c 1
 577 222 l 1
 549 141 483 87 390 87 c 1
1032 560 m 1
 979 560 l 1
 689 560 l 1
 692 786 733 887 867 887 c 0
 989 887 1028 798 1032 560 c 1
EndSplineSet
EndChar

StartChar: ampersand
Encoding: 6 38 65
Width: 1100
VWidth: 0
Flags: W
PickledData: "(dp1
S'com.typemytype.robofont.layerData'
p2
(dp3
S'b'
(dp4
S'name'
p5
S'ampersand'
p6
sS'lib'
p7
(dp8
sS'unicodes'
p9
(tsS'width'
p10
I1100
sS'contours'
p11
(tsS'components'
p12
(tsS'anchors'
p13
(tsss."
LayerCount: 2
Fore
SplineSet
1024 489 m 1
 915 522 l 1
 846 264 733 96 519 96 c 0
 332 96 252 169 252 297 c 0
 252 423 335 501 441 588 c 0
 590 709 768 845 768 1038 c 0
 768 1220 645 1308 489 1308 c 0
 349 1308 209 1222 209 1041 c 0
 209 954 255 859 312 778 c 1
 908 -19 l 1
 1002 54 l 1
 437 799 l 1
 381 878 337 945 337 1044 c 0
 337 1145 397 1196 492 1196 c 0
 589 1196 640 1145 640 1033 c 0
 640 899 527 807 404 710 c 1
 268 601 124 484 124 291 c 0
 124 96 261 -16 505 -16 c 0
 811 -16 965 229 1024 489 c 1
EndSplineSet
EndChar

StartChar: approxequal
Encoding: 65539 8776 66
Width: 1146
VWidth: 0
Flags: W
LayerCount: 2
Fore
SplineSet
943 660 m 2
 980 703 l 1
 1020 755 l 1
 1020 758 l 1
 956 821 l 1
 893 733 832 683 777 683 c 0
 741 683 697 703 609 752 c 0
 470 829 433 848 380 848 c 0
 294 848 211 786 125 667 c 1
 192 603 l 1
 259 691 314 746 377 746 c 0
 410 746 442 733 503 696 c 1
 564 662 l 1
 630 620 l 1
 655 606 725 578 773 578 c 0
 838 579 897 606 943 660 c 2
940 284 m 2
 977 327 l 1
 1017 379 l 1
 1020 380 l 1
 956 441 l 1
 893 355 832 302 778 302 c 0
 739 302 681 324 656 340 c 2
 599 376 l 2
 519 426 438 467 377 467 c 0
 295 467 205 408 123 289 c 1
 189 225 l 1
 248 302 308 368 375 368 c 0
 420 368 467 340 537 300 c 1
 575 275 l 2
 596 261 611 252 621 247 c 2
 663 226 l 2
 699 208 735 202 771 202 c 0
 833 203 894 230 940 284 c 2
EndSplineSet
EndChar

StartChar: aring
Encoding: 163 229 67
Width: 976
VWidth: 0
Flags: W
LayerCount: 2
Fore
SplineSet
462 588 m 2
 466 588 l 1
 241 582 131 484 131 280 c 0
 131 79 236 -19 429 -19 c 0
 542 -19 650 44 711 111 c 1
 716 50 732 7 759 -18 c 1
 806 -13 833 -10 842 -8 c 1
 831 133 l 1
 815 149 815 161 815 210 c 2
 815 583 l 2
 815 900 759 1000 489 1000 c 0
 324 1000 215 959 162 878 c 1
 217 792 l 1
 272 875 426 889 492 889 c 0
 676 889 703 816 703 584 c 1
 659 584 515 588 462 588 c 2
245 286 m 1
 244 287 l 1
 244 463 374 485 544 485 c 0
 550 485 556 485 562 485 c 2
 635 483 l 2
 664 482 686 482 703 482 c 1
 703 247 l 1
 665 167 547 91 438 91 c 0
 299 91 245 142 245 286 c 1
676 1293 m 0
 676 1410 606 1478 497 1478 c 0
 390 1478 320 1409 320 1295 c 0
 320 1181 389 1111 497 1111 c 0
 605 1111 676 1178 676 1293 c 0
598 1293 m 0
 598 1225 562 1189 497 1189 c 0
 433 1189 396 1227 396 1295 c 0
 396 1365 430 1400 497 1400 c 0
 564 1400 598 1364 598 1293 c 0
EndSplineSet
EndChar

StartChar: asciitilde
Encoding: 94 126 68
Width: 1038
VWidth: 0
Flags: W
LayerCount: 2
Fore
SplineSet
108 530 m 1
 105 530 l 1
 183 469 l 1
 244 558 286 599 338 599 c 0
 367 599 409 578 483 531 c 1
 605 457 646 437 703 437 c 0
 817 437 880 538 930 620 c 1
 854 679 l 1
 799 602 756 553 707 553 c 0
 678 553 636 575 555 622 c 0
 423 698 386 717 334 717 c 0
 245 717 177 637 108 530 c 1
EndSplineSet
EndChar

StartChar: asterisk
Encoding: 10 42 69
Width: 923
VWidth: 0
Flags: W
LayerCount: 2
Fore
SplineSet
786 1223 m 1
 506 1130 l 1
 506 1425 l 1
 415 1425 l 1
 415 1130 l 1
 134 1223 l 1
 108 1137 l 1
 386 1043 l 1
 213 807 l 1
 286 753 l 1
 460 989 l 1
 635 753 l 1
 708 807 l 1
 534 1043 l 1
 812 1138 l 1
 786 1223 l 1
EndSplineSet
EndChar

StartChar: at
Encoding: 32 64 70
Width: 1212
VWidth: 0
Flags: W
LayerCount: 2
Fore
SplineSet
512 437 m 1
 511 436 l 1
 511 617 546 760 688 760 c 0
 752 760 806 749 850 727 c 1
 836 452 840 288 799 247 c 1
 750 214 705 198 664 198 c 0
 550 198 512 307 512 437 c 1
767 864 m 1
 766 860 l 1
 759 860 753 853 747 840 c 1
 714 854 682 861 651 861 c 0
 498 861 394 687 394 470 c 0
 394 297 443 172 543 128 c 0
 563 119 581 114 601 114 c 0
 655 114 693 138 731 174 c 1
 779 135 831 116 887 116 c 0
 914 116 941 120 970 129 c 1
 1043 370 1079 630 1079 911 c 1
 1070 1071 872 1173 672 1173 c 0
 333 1173 127 887 127 462 c 0
 127 60 313 -203 632 -203 c 0
 737 -203 844 -182 950 -139 c 1
 916 -33 l 1
 810 -72 713 -92 625 -92 c 0
 369 -92 236 136 236 469 c 0
 236 813 414 1062 661 1062 c 0
 810 1062 943 972 943 836 c 0
 943 774 932 738 908 735 c 1
 875 676 877 687 877 672 c 1
 854 684 834 693 819 698 c 1
 812 731 802 786 789 862 c 1
 780 862 775 864 767 864 c 1
EndSplineSet
EndChar

StartChar: b
Encoding: 66 98 72
Width: 1011
VWidth: 0
Flags: W
PickledData: "(dp1
S'com.typemytype.robofont.layerData'
p2
(dp3
S'b'
(dp4
S'name'
p5
S'b'
sS'lib'
p6
(dp7
sS'unicodes'
p8
(tsS'width'
p9
I1011
sS'contours'
p10
(tsS'components'
p11
(tsS'anchors'
p12
(tsss."
LayerCount: 2
Fore
SplineSet
279 137 m 1
 279 809 l 1
 388 872 467 893 535 893 c 0
 692 893 759 767 759 491 c 0
 759 206 683 91 503 91 c 0
 440 91 375 92 279 137 c 1
279 1373 m 1
 151 1373 l 1
 151 -2 l 1
 255 -10 l 1
 265 50 l 1
 347 6 446 -16 521 -16 c 0
 758 -16 887 126 887 493 c 0
 887 852 751 1000 551 1000 c 0
 467 1000 381 986 279 923 c 1
 279 1373 l 1
EndSplineSet
EndChar

StartChar: backslash
Encoding: 60 92 73
Width: 884
VWidth: 0
Flags: W
LayerCount: 2
Fore
SplineSet
159 1473 m 1
 784 -55 l 1
 709 -96 l 1
 83 1432 l 1
 159 1473 l 1
EndSplineSet
EndChar

StartChar: bar
Encoding: 92 124 74
Width: 418
VWidth: 0
Flags: W
LayerCount: 2
Fore
SplineSet
151 -436 m 1
 151 1526 l 1
 267 1526 l 1
 267 -436 l 1
 151 -436 l 1
EndSplineSet
EndChar

StartChar: braceleft
Encoding: 91 123 75
Width: 691
VWidth: 0
Flags: W
LayerCount: 2
Fore
SplineSet
272 1038 m 1
 272 1037 l 2
 272 938 270 860 266 801 c 1
 206 762 157 732 120 712 c 1
 120 603 l 1
 187 564 236 535 266 514 c 1
 269 455 271 379 271 285 c 0
 271 254 266 124 266 45 c 0
 266 -265 317 -297 581 -297 c 2
 599 -297 l 1
 607 -195 l 1
 449 -195 388 -184 379 -20 c 1
 379 24 l 2
 379 37 378 52 378 70 c 0
 378 149 384 352 384 463 c 0
 384 504 384 539 383 567 c 1
 377 571 340 595 271 631 c 0
 257 638 242 654 236 664 c 1
 297 697 346 725 383 749 c 1
 383 761 383 777 383 795 c 0
 383 869 376 1083 376 1215 c 0
 376 1414 383 1459 478 1481 c 0
 522 1491 551 1492 608 1492 c 1
 600 1594 l 1
 503 1594 438 1589 404 1581 c 0
 283 1552 271 1472 271 1266 c 2
 271 1153 l 2
 271 1102 273 1063 272 1038 c 1
EndSplineSet
EndChar

StartChar: braceright
Encoding: 93 125 76
Width: 698
VWidth: 0
Flags: W
LayerCount: 2
Fore
SplineSet
462 659 m 1
 461 664 l 1
 452 648 431 635 374 602 c 0
 345 585 324 574 313 567 c 1
 313 553 313 537 313 519 c 0
 313 438 320 202 320 72 c 0
 320 -173 297 -195 89 -195 c 1
 97 -297 l 1
 299 -297 408 -291 419 -119 c 1
 424 -81 426 -9 426 96 c 0
 426 116 426 138 426 161 c 2
 425 284 l 2
 425 304 425 324 425 342 c 0
 425 407 426 464 430 513 c 1
 463 536 512 566 576 603 c 1
 576 710 l 1
 521 739 472 769 430 799 c 1
 428 841 426 918 426 1031 c 0
 426 1092 428 1159 428 1246 c 0
 428 1499 397 1545 308 1574 c 0
 281 1583 215 1589 188 1589 c 0
 173 1589 150 1590 118 1590 c 2
 97 1590 l 1
 90 1488 l 1
 294 1488 319 1460 319 1232 c 0
 319 1147 313 928 313 823 c 0
 313 793 314 766 314 744 c 1
 348 721 397 693 462 659 c 1
EndSplineSet
EndChar

StartChar: bracketleft
Encoding: 59 91 77
Width: 604
VWidth: 0
Flags: W
PickledData: "(dp1
S'com.typemytype.robofont.layerData'
p2
(dp3
S'b'
(dp4
S'name'
p5
S'bracketleft'
p6
sS'lib'
p7
(dp8
sS'unicodes'
p9
(tsS'width'
p10
I604
sS'contours'
p11
(tsS'components'
p12
(tsS'anchors'
p13
(tsss."
LayerCount: 2
Fore
SplineSet
288 133 m 1
 288 -184 l 1
 544 -184 l 1
 544 -287 l 1
 160 -287 l 1
 160 1591 l 1
 544 1591 l 1
 544 1487 l 1
 288 1487 l 1
 288 1298 l 1
 288 133 l 1
EndSplineSet
EndChar

StartChar: bracketright
Encoding: 61 93 78
Width: 610
VWidth: 0
Flags: W
LayerCount: 2
Fore
SplineSet
88 1487 m 1
 88 1591 l 1
 459 1591 l 1
 459 -287 l 1
 88 -287 l 1
 88 -184 l 1
 346 -184 l 1
 346 137 l 1
 346 1178 l 1
 346 1487 l 1
 88 1487 l 1
EndSplineSet
EndChar

StartChar: bullet
Encoding: 403 8226 79
Width: 481
VWidth: 0
Flags: W
LayerCount: 2
Fore
SplineSet
368 655 m 1
 368 571 330 501 277 469 c 1
 201 469 135 509 110 569 c 1
 110 654 147 725 202 756 c 1
 278 756 345 715 368 655 c 1
EndSplineSet
EndChar

StartChar: c
Encoding: 67 99 80
Width: 936
VWidth: 0
Flags: HW
PickledData: "(dp1
S'com.typemytype.robofont.layerData'
p2
(dp3
S'b'
(dp4
S'name'
p5
S'c'
sS'lib'
p6
(dp7
sS'unicodes'
p8
(tsS'width'
p9
I936
sS'contours'
p10
(tsS'components'
p11
(tsS'anchors'
p12
(tsss."
AnchorPoint: "bot" 510 0 basechar 0
AnchorPoint: "top" 513 985 basechar 0
LayerCount: 2
Fore
SplineSet
505 91 m 2
 507 91 l 2
 302 91 252 254 252 494 c 0
 252 733 306 893 508 893 c 0
 565 893 619 882 670 862 c 1
 670 672 l 1
 775 682 l 1
 775 940 l 1
 690 980 603 1000 512 1000 c 0
 253 1000 124 832 124 496 c 0
 124 151 248 -16 508 -16 c 0
 637 -16 763 42 808 102 c 1
 754 191 l 1
 718 160 614 91 505 91 c 2
EndSplineSet
EndChar

StartChar: ccedilla
Encoding: 165 231 81
Width: 936
VWidth: 0
Flags: W
LayerCount: 2
Fore
SplineSet
241 494 m 1
 240 494 l 1
 240 743 299 889 506 889 c 0
 551 889 606 877 669 854 c 1
 677 759 682 699 683 672 c 1
 788 682 l 1
 785 743 777 829 764 940 c 1
 680 981 595 1001 510 1001 c 0
 232 1001 125 818 125 496 c 0
 125 163 239 -20 510 -20 c 0
 582 -20 751 7 800 115 c 1
 747 197 l 1
 695 111 573 90 510 90 c 0
 299 90 241 247 241 494 c 1
478 -117 m 5
 480 -119 l 5
 491 -80 l 5
 457 -80 422 -83 387 -90 c 5
 386 -186 l 5
 415 -189 438 -193 453 -198 c 5
 520 -198 555 -221 555 -284 c 4
 555 -341 526 -372 471 -372 c 6
 452 -372 l 5
 414 -369 385 -362 366 -351 c 5
 351 -431 l 5
 395 -450 440 -461 478 -461 c 4
 583 -461 648 -396 648 -279 c 4
 648 -172 581 -117 478 -117 c 5
EndSplineSet
EndChar

StartChar: cent
Encoding: 96 162 82
Width: 878
VWidth: 0
Flags: W
LayerCount: 2
Fore
SplineSet
445 -15 m 1
 445 -16 l 1
 445 -147 l 1
 543 -147 l 1
 543 -16 l 1
 611 -8 680 11 751 41 c 1
 723 143 l 1
 627 105 550 86 492 86 c 0
 316 86 229 237 229 487 c 0
 229 705 295 881 492 881 c 0
 559 881 627 869 696 844 c 1
 719 946 l 1
 668 964 608 977 539 984 c 1
 539 1125 l 1
 441 1125 l 1
 441 982 l 1
 230 957 124 792 124 486 c 0
 124 198 226 11 445 -15 c 1
EndSplineSet
EndChar

StartChar: colon
Encoding: 26 58 83
Width: 481
VWidth: 0
Flags: W
LayerCount: 2
Fore
SplineSet
340 287 m 1
 340 47 l 1
 141 47 l 1
 141 287 l 1
 340 287 l 1
340 841 m 1
 340 601 l 1
 141 601 l 1
 141 841 l 1
 340 841 l 1
EndSplineSet
EndChar

StartChar: comma
Encoding: 12 44 84
Width: 430
VWidth: 0
Flags: W
LayerCount: 2
Fore
SplineSet
304 39 m 2
 304 215 l 1
 135 215 l 1
 135 -4 l 1
 207 -4 l 1
 204 -65 175 -138 121 -221 c 1
 168 -274 l 1
 251 -178 304 -89 304 39 c 2
EndSplineSet
EndChar

StartChar: copyright
Encoding: 103 169 85
Width: 1056
VWidth: 0
Flags: W
LayerCount: 2
Fore
SplineSet
540 1097 m 1
 540 1098 l 1
 278 1098 122 900 122 580 c 0
 122 265 267 59 534 59 c 0
 680 59 790 114 863 225 c 1
 870 247 875 271 878 297 c 1
 875 296 873 296 870 296 c 0
 809 296 759 440 759 575 c 0
 759 670 762 747 769 806 c 1
 781 948 l 1
 790 959 798 964 804 964 c 0
 807 964 809 964 811 962 c 1
 768 1020 706 1052 623 1058 c 1
 600 1084 572 1097 540 1097 c 1
807 719 m 1
 807 718 l 2
 807 851 740 956 637 976 c 1
 600 989 566 996 535 996 c 0
 315 996 204 836 204 577 c 0
 204 321 321 175 544 175 c 0
 581 175 612 181 637 194 c 1
 634 211 630 230 623 251 c 1
 599 242 572 237 541 237 c 0
 518 237 510 248 510 278 c 0
 510 302 515 341 524 395 c 1
 580 523 649 636 731 733 c 1
 756 733 782 728 807 719 c 1
929 579 m 2
 929 578 l 2
 929 886 798 1083 537 1083 c 0
 281 1083 141 890 141 579 c 0
 141 271 273 79 537 79 c 0
 789 79 929 273 929 579 c 2
EndSplineSet
EndChar

StartChar: d
Encoding: 68 100 86
Width: 1010
VWidth: 0
Flags: W
PickledData: "(dp1
S'com.typemytype.robofont.layerData'
p2
(dp3
S'b'
(dp4
S'name'
p5
S'd'
sS'lib'
p6
(dp7
sS'unicodes'
p8
(tsS'width'
p9
I1010
sS'contours'
p10
(tsS'components'
p11
(tsS'anchors'
p12
(tsss."
LayerCount: 2
Fore
SplineSet
732 137 m 1
 732 809 l 1
 623 872 544 893 476 893 c 0
 319 893 252 767 252 491 c 0
 252 206 328 91 508 91 c 0
 571 91 636 92 732 137 c 1
732 1373 m 1
 860 1373 l 1
 860 -2 l 1
 756 -10 l 1
 746 50 l 1
 664 6 565 -16 490 -16 c 0
 253 -16 124 126 124 493 c 0
 124 852 260 1000 460 1000 c 0
 544 1000 630 986 732 923 c 1
 732 1373 l 1
EndSplineSet
EndChar

StartChar: dagger
Encoding: 401 8224 87
Width: 951
VWidth: 0
Flags: W
LayerCount: 2
Fore
SplineSet
417 1081 m 1
 417 1511 l 1
 531 1511 l 1
 531 1081 l 1
 837 1081 l 1
 837 977 l 1
 531 977 l 1
 531 -238 l 1
 419 -238 l 1
 419 975 l 1
 109 975 l 1
 109 1081 l 1
 417 1081 l 1
EndSplineSet
EndChar

StartChar: daggerdbl
Encoding: 402 8225 88
Width: 1000
VWidth: 0
Flags: W
LayerCount: 2
Fore
SplineSet
553 217 m 1
 553 -238 l 1
 443 -238 l 1
 443 217 l 1
 135 217 l 1
 135 322 l 1
 443 322 l 1
 443 981 l 1
 135 981 l 1
 135 1087 l 1
 443 1087 l 1
 443 1513 l 1
 553 1513 l 1
 553 1087 l 1
 863 1087 l 1
 863 981 l 1
 553 981 l 1
 553 322 l 1
 863 322 l 1
 863 217 l 1
 553 217 l 1
EndSplineSet
EndChar

StartChar: degree
Encoding: 110 176 89
Width: 699
VWidth: 0
Flags: W
LayerCount: 2
Fore
SplineSet
350 917 m 1
 351 918 l 1
 487 918 586 1016 586 1169 c 0
 586 1319 490 1421 352 1421 c 0
 214 1421 112 1325 112 1169 c 0
 112 1019 208 917 350 917 c 1
486 1168 m 0
 486 1075 432 1011 347 1011 c 0
 262 1011 213 1073 213 1170 c 0
 213 1266 263 1328 347 1328 c 0
 434 1328 486 1265 486 1168 c 0
EndSplineSet
EndChar

StartChar: divide
Encoding: 181 247 90
Width: 978
VWidth: 0
Flags: W
LayerCount: 2
Fore
SplineSet
401 282 m 2
 401 281 l 1
 421 240 459 219 514 219 c 1
 548 242 565 287 565 352 c 1
 544 393 506 414 453 414 c 1
 418 391 401 347 401 282 c 2
453 771 m 1
 514 771 l 1
 548 779 565 808 565 857 c 0
 565 914 548 951 514 968 c 1
 453 968 l 1
 418 959 401 930 401 881 c 0
 401 824 418 788 453 771 c 1
110 548 m 1
 866 548 l 1
 866 646 l 1
 110 646 l 1
 110 548 l 1
EndSplineSet
EndChar

StartChar: dollar
Encoding: 4 36 91
Width: 1035
VWidth: 0
Flags: W
LayerCount: 2
Fore
SplineSet
495 -188 m 1
 574 -188 l 1
 574 1465 l 1
 494 1465 l 1
 495 -188 l 1
850 1145 m 1
 871 1239 l 1
 770 1285 661 1308 543 1308 c 0
 328 1308 140 1216 140 972 c 1
 148 757 246 686 512 609 c 0
 684 559 774 512 782 336 c 1
 782 149 645 84 489 84 c 0
 378 84 254 117 162 165 c 1
 137 68 l 1
 243 11 360 -17 489 -17 c 0
 710 -17 902 85 902 337 c 0
 902 611 721 660 551 716 c 0
 465 744 412 763 390 773 c 0
 299 814 260 879 260 972 c 0
 260 1152 394 1208 543 1208 c 0
 645 1208 747 1187 850 1145 c 1
EndSplineSet
EndChar

StartChar: dotlessi
Encoding: 239 305 92
Width: 703
VWidth: 0
Flags: HW
AnchorPoint: "top" 306 985 basechar 0
LayerCount: 2
Fore
SplineSet
103 889 m 1
 295 889 l 1
 295 96 l 1
 103 96 l 1
 103 0 l 1
 615 0 l 1
 615 96 l 1
 423 96 l 1
 423 985 l 1
 103 985 l 1
 103 889 l 1
EndSplineSet
EndChar

StartChar: e
Encoding: 69 101 93
Width: 996
VWidth: 0
Flags: HW
PickledData: "(dp1
S'com.typemytype.robofont.layerData'
p2
(dp3
S'b'
(dp4
S'name'
p5
S'e'
sS'lib'
p6
(dp7
S'anchors'
p8
(tsS'unicodes'
p9
(tsS'width'
p10
I1017
sS'contours'
p11
(tsS'components'
p12
(tsg5
S'o'
ssg9
(tsg10
I996
sg11
((dp13
S'points'
p14
((dp15
S'segmentType'
p16
S'curve'
p17
sS'x'
F511
sS'smooth'
p18
I01
sS'y'
F892
s(dp19
S'y'
F892
sS'x'
F314
sg18
I00
s(dp20
S'y'
F727
sS'x'
F255
sg18
I00
s(dp21
g16
S'curve'
p22
sS'x'
F255
sg18
I01
sS'y'
F492
s(dp23
S'y'
F254
sS'x'
F255
sg18
I00
s(dp24
S'y'
F92
sS'x'
F311
sg18
I00
s(dp25
g16
S'curve'
p26
sS'x'
F511
sg18
I01
sS'y'
F92
s(dp27
S'y'
F92
sS'x'
F711
sg18
I00
s(dp28
S'y'
F254
sS'x'
F766.875
sg18
I00
s(dp29
g16
S'curve'
p30
sS'x'
F766.875
sg18
I01
sS'y'
F492
s(dp31
S'y'
F727
sS'x'
F766.875
sg18
I00
s(dp32
S'y'
F892
sS'x'
F708
sg18
I00
stp33
s(dp34
g14
((dp35
g16
S'curve'
p36
sS'x'
F510.875
sg18
I01
sS'y'
F-16
s(dp37
S'y'
F-16
sS'x'
F244
sg18
I00
s(dp38
S'y'
F179
sS'x'
F127
sg18
I00
s(dp39
g16
S'curve'
p40
sS'x'
F127
sg18
I01
sS'y'
F492
s(dp41
S'y'
F823
sS'x'
F127
sg18
I00
s(dp42
S'y'
F1000
sS'x'
F242
sg18
I00
s(dp43
g16
S'curve'
p44
sS'x'
F510.875
sg18
I01
sS'y'
F1000
s(dp45
S'y'
F1000
sS'x'
F779.875
sg18
I00
s(dp46
S'y'
F823
sS'x'
F894.875
sg18
I00
s(dp47
g16
S'curve'
p48
sS'x'
F894.875
sg18
I01
sS'y'
F492
s(dp49
S'y'
F179
sS'x'
F894.875
sg18
I00
s(dp50
S'y'
F-16
sS'x'
F777.875
sg18
I00
stp51
stp52
sg12
(tsg8
(tsss."
AnchorPoint: "bot" 572 0 basechar 0
AnchorPoint: "top" 527 985 basechar 0
LayerCount: 2
Fore
SplineSet
821 170 m 1
 860 69 l 1
 764 10 639 -16 544 -16 c 0
 267 -16 124 134 124 496 c 0
 124 857 295 1000 528 1000 c 0
 750 1000 878 841 878 604 c 0
 878 574 875 525 870 466 c 1
 252 466 l 1
 256 138 403 82 561 91 c 0
 640 95 738 117 821 170 c 1
524 893 m 0
 351 893 267 765 252 558 c 1
 759 558 l 1
 759 609 l 2
 759 783 669 893 524 893 c 0
EndSplineSet
EndChar

StartChar: eight
Encoding: 24 56 98
Width: 1034
VWidth: 0
Flags: W
PickledData: "(dp1
S'com.typemytype.robofont.layerData'
p2
(dp3
S'b'
(dp4
S'name'
p5
S'eight'
p6
sS'lib'
p7
(dp8
sS'unicodes'
p9
(tsS'width'
p10
I1034
sS'contours'
p11
((dp12
S'points'
p13
((dp14
S'segmentType'
p15
S'curve'
p16
sS'x'
F160
sS'smooth'
p17
I01
sS'y'
F994
s(dp18
S'y'
F825
sS'x'
F160
sg17
I00
s(dp19
S'y'
F741
sS'x'
F263
sg17
I00
s(dp20
g15
S'curve'
p21
sS'x'
F380
sg17
I00
sS'y'
F680
s(dp22
S'y'
F602
sS'x'
F210
sg17
I00
s(dp23
S'y'
F445
sS'x'
F128
sg17
I00
s(dp24
g15
S'curve'
p25
sS'x'
F128
sg17
I01
sS'y'
F304
s(dp26
S'y'
F79
sS'x'
F128
sg17
I00
s(dp27
S'y'
F-16
sS'x'
F323
sg17
I00
s(dp28
g15
S'curve'
p29
sS'x'
F512
sg17
I01
sS'y'
F-16
s(dp30
S'y'
F-16
sS'x'
F707
sg17
I00
s(dp31
S'y'
F89
sS'x'
F896
sg17
I00
s(dp32
g15
S'curve'
p33
sS'x'
F896
sg17
I01
sS'y'
F306
s(dp34
S'y'
F496
sS'x'
F896
sg17
I00
s(dp35
S'y'
F593
sS'x'
F783
sg17
I00
s(dp36
g15
S'curve'
p37
sS'x'
F654
sg17
I00
sS'y'
F661
s(dp38
S'y'
F723
sS'x'
F800
sg17
I00
s(dp39
S'y'
F863
sS'x'
F896
sg17
I00
s(dp40
g15
S'curve'
p41
sS'x'
F896
sg17
I01
sS'y'
F998
s(dp42
S'y'
F1197
sS'x'
F896
sg17
I00
s(dp43
S'y'
F1308
sS'x'
F708
sg17
I00
s(dp44
g15
S'curve'
p45
sS'x'
F528
sg17
I01
sS'y'
F1308
s(dp46
S'y'
F1308
sS'x'
F351
sg17
I00
s(dp47
S'y'
F1211
sS'x'
F160
sg17
I00
stp48
s(dp49
g13
((dp50
g15
S'curve'
p51
sS'x'
F545
sg17
I00
sS'y'
F712
s(dp52
S'y'
F772
sS'x'
F408
sg17
I00
s(dp53
S'y'
F840
sS'x'
F288
sg17
I00
s(dp54
g15
S'curve'
p55
sS'x'
F288
sg17
I01
sS'y'
F989
s(dp56
S'y'
F1149
sS'x'
F288
sg17
I00
s(dp57
S'y'
F1196
sS'x'
F402
sg17
I00
s(dp58
g15
S'curve'
p59
sS'x'
F528
sg17
I01
sS'y'
F1196
s(dp60
S'y'
F1196
sS'x'
F694
sg17
I00
s(dp61
S'y'
F1107
sS'x'
F768
sg17
I00
s(dp62
g15
S'curve'
p63
sS'x'
F768
sg17
I01
sS'y'
F987
s(dp64
S'y'
F875
sS'x'
F768
sg17
I00
s(dp65
S'y'
F748
sS'x'
F699
sg17
I00
s(dp66
g15
S'curve'
p67
sS'x'
F568
sg17
I00
sS'y'
F703
s(dp68
S'y'
F703
sS'x'
F568
sg17
I00
s(dp69
S'y'
F712
sS'x'
F545
sg17
I00
stp70
s(dp71
g13
((dp72
g15
S'curve'
p73
sS'x'
F489
sg17
I00
sS'y'
F631
s(dp74
S'y'
F573
sS'x'
F622
sg17
I00
s(dp75
S'y'
F487
sS'x'
F768
sg17
I00
s(dp76
g15
S'curve'
p77
sS'x'
F768
sg17
I01
sS'y'
F321
s(dp78
S'y'
F152
sS'x'
F768
sg17
I00
s(dp79
S'y'
F96
sS'x'
F646
sg17
I00
s(dp80
g15
S'curve'
p81
sS'x'
F512
sg17
I01
sS'y'
F96
s(dp82
S'y'
F96
sS'x'
F376
sg17
I00
s(dp83
S'y'
F152
sS'x'
F256
sg17
I00
s(dp84
g15
S'curve'
p85
sS'x'
F256
sg17
I01
sS'y'
F303
s(dp86
S'y'
F435
sS'x'
F256
sg17
I00
s(dp87
S'y'
F592
sS'x'
F340
sg17
I00
s(dp88
g15
S'curve'
p89
sS'x'
F482
sg17
I00
sS'y'
F634
s(dp90
S'y'
F634
sS'x'
F482
sg17
I00
s(dp91
S'y'
F631
sS'x'
F489
sg17
I00
stp92
stp93
sS'components'
p94
(tsS'anchors'
p95
(tsss."
LayerCount: 2
Fore
SplineSet
160 994 m 0
 160 825 266 736 383 675 c 1
 213 597 128 445 128 304 c 0
 128 93 303 -16 512 -16 c 0
 707 -16 896 89 896 306 c 0
 896 496 783 597 654 665 c 1
 800 727 896 863 896 998 c 0
 896 1197 723 1308 528 1308 c 0
 334 1308 160 1211 160 994 c 0
545 716 m 1
 408 776 288 840 288 989 c 0
 288 1149 404 1196 530 1196 c 0
 696 1196 768 1107 768 987 c 0
 768 875 676 761 545 716 c 1
512 96 m 0
 372 96 262 154 256 305 c 0
 251 433 328 543 492 626 c 1
 625 568 768 487 768 321 c 0
 768 152 646 96 512 96 c 0
EndSplineSet
EndChar

StartChar: ellipsis
Encoding: 404 8230 99
Width: 1155
VWidth: 0
Flags: W
LayerCount: 2
Fore
SplineSet
650 184 m 1
 650 0 l 1
 505 0 l 1
 505 184 l 1
 650 184 l 1
1031 184 m 1
 1031 0 l 1
 885 0 l 1
 885 184 l 1
 1031 184 l 1
273 184 m 1
 273 0 l 1
 125 0 l 1
 125 184 l 1
 273 184 l 1
EndSplineSet
EndChar

StartChar: emdash
Encoding: 394 8212 100
Width: 1124
VWidth: 0
Flags: W
LayerCount: 2
Fore
SplineSet
116 547 m 1
 116 643 l 1
 1006 643 l 1
 1006 547 l 1
 116 547 l 1
EndSplineSet
EndChar

StartChar: endash
Encoding: 393 8211 101
Width: 894
VWidth: 0
Flags: W
LayerCount: 2
Fore
SplineSet
116 547 m 1
 116 643 l 1
 776 643 l 1
 776 547 l 1
 116 547 l 1
EndSplineSet
EndChar

StartChar: equal
Encoding: 29 61 102
Width: 1025
VWidth: 0
Flags: W
LayerCount: 2
Fore
SplineSet
123 780 m 1
 897 780 l 1
 897 684 l 1
 123 684 l 1
 123 780 l 1
123 467 m 1
 897 467 l 1
 897 371 l 1
 123 371 l 1
 123 467 l 1
EndSplineSet
EndChar

StartChar: exclam
Encoding: 1 33 103
Width: 446
VWidth: 0
Flags: W
LayerCount: 2
Fore
SplineSet
161 1395 m 1
 161 1194 l 1
 161 369 l 1
 268 369 l 1
 278 1194 l 1
 278 1395 l 1
 161 1395 l 1
147 182 m 1
 147 -8 l 1
 305 -8 l 1
 305 182 l 1
 147 182 l 1
EndSplineSet
EndChar

StartChar: exclamdown
Encoding: 95 161 104
Width: 439
VWidth: 0
Flags: W
LayerCount: 2
Fore
SplineSet
293 1137 m 1
 138 1137 l 1
 138 946 l 1
 293 946 l 1
 293 1137 l 1
270 758 m 1
 174 758 l 1
 174 -117 l 1
 163 -268 l 1
 281 -268 l 1
 281 -31 l 1
 277 232 273.333333333 495 270 758 c 1
EndSplineSet
EndChar

StartChar: f
Encoding: 70 102 105
Width: 848
VWidth: 0
Flags: W
PickledData: "(dp1
S'com.typemytype.robofont.layerData'
p2
(dp3
S'b'
(dp4
S'name'
p5
S'f'
sS'lib'
p6
(dp7
sS'unicodes'
p8
(tsS'width'
p9
I848
sS'contours'
p10
(tsS'components'
p11
(tsS'anchors'
p12
(tsss."
LayerCount: 2
Fore
SplineSet
305 0 m 1
 305 889 l 1
 113 889 l 1
 113 985 l 1
 305 985 l 1
 305 1271 351 1387 564 1394 c 1
 620 1394 682 1382 749 1359 c 1
 729 1261 l 1
 668 1280 617 1289 579 1289 c 0
 463 1289 433 1250 433 985 c 1
 657 985 l 1
 657 889 l 1
 433 889 l 1
 433 0 l 1
 305 0 l 1
EndSplineSet
EndChar

StartChar: five
Encoding: 21 53 107
Width: 999
VWidth: 0
Flags: W
PickledData: "(dp1
S'com.typemytype.robofont.layerData'
p2
(dp3
S'b'
(dp4
S'name'
p5
S'five'
p6
sS'lib'
p7
(dp8
sS'unicodes'
p9
(tsS'width'
p10
I999
sS'contours'
p11
(tsS'components'
p12
(tsS'anchors'
p13
(tsss."
LayerCount: 2
Fore
SplineSet
736 380 m 0
 736 205 634 96 450 96 c 1
 362 95 244 119 157 148 c 1
 130 40 l 1
 203 13 347 -16 443 -16 c 0
 692 -16 864 128 864 378 c 0
 864 635 707 794 501 794 c 0
 422 794 344 771 265 726 c 1
 280 1184 l 1
 796 1184 l 1
 796 1284 l 1
 179 1284 l 1
 179 637 l 1
 238 608 l 1
 317 667 399 697 484 697 c 0
 636 697 736 589 736 380 c 0
EndSplineSet
EndChar

StartChar: florin
Encoding: 315 402 109
Width: 997
VWidth: 0
Flags: W
LayerCount: 2
Fore
SplineSet
393 -31 m 1
 395 -31 l 1
 511 840 l 1
 801 840 l 1
 819 952 l 1
 525 952 l 1
 537 1057 560 1137 594 1194 c 1
 623 1261 652 1290 727 1290 c 0
 766 1290 813 1282 867 1266 c 1
 895 1380 l 1
 851 1391 811 1399 776 1403 c 1
 703 1403 l 1
 489 1389 441 1186 412 952 c 1
 240 952 l 1
 224 840 l 1
 397 840 l 1
 339 373 300 81 282 -37 c 0
 261 -170 238 -244 165 -276 c 1
 139 -296 108 -306 72 -306 c 0
 67 -306 62 -305 57 -305 c 1
 48 -416 l 1
 65 -417 79 -418 88 -418 c 0
 315 -416 365 -239 393 -31 c 1
EndSplineSet
EndChar

StartChar: four
Encoding: 20 52 110
Width: 1002
VWidth: 0
Flags: W
PickledData: "(dp1
S'com.typemytype.robofont.layerData'
p2
(dp3
S'b'
(dp4
S'name'
p5
S'four'
p6
sS'lib'
p7
(dp8
sS'unicodes'
p9
(tsS'width'
p10
I1002
sS'contours'
p11
(tsS'components'
p12
(tsS'anchors'
p13
(tsss."
LayerCount: 2
Fore
SplineSet
617 0 m 1
 719 0 l 1
 719 260 l 1
 885 260 l 1
 885 367 l 1
 719 367 l 1
 719 797 l 1
 617 797 l 1
 617 367 l 1
 232 367 l 1
 526 1298 l 1
 420 1298 l 1
 118 356 l 1
 118 260 l 1
 617 260 l 1
 617 0 l 1
EndSplineSet
EndChar

StartChar: fraction
Encoding: 408 8260 111
Width: 814
VWidth: 0
Flags: W
LayerCount: 2
Fore
SplineSet
734 1446 m 1
 208 -6 l 1
 109 0 l 1
 632 1446 l 1
 734 1446 l 1
EndSplineSet
EndChar

StartChar: g
Encoding: 71 103 112
Width: 1184
VWidth: 0
Flags: HW
PickledData: "(dp1
S'com.typemytype.robofont.layerData'
p2
(dp3
S'b'
(dp4
S'name'
p5
S'g'
sS'lib'
p6
(dp7
sS'unicodes'
p8
(tsS'width'
p9
I1184
sS'contours'
p10
((dp11
S'points'
p12
((dp13
S'segmentType'
p14
S'curve'
p15
sS'x'
F577
sS'smooth'
p16
I01
sS'y'
F905
s(dp17
S'y'
F905
sS'x'
F752
sg16
I00
s(dp18
S'y'
F802
sS'x'
F822
sg16
I00
s(dp19
g14
S'curve'
p20
sS'x'
F822
sg16
I01
sS'y'
F680
s(dp21
S'y'
F535
sS'x'
F822
sg16
I00
s(dp22
S'y'
F456
sS'x'
F745
sg16
I00
s(dp23
g14
S'curve'
p24
sS'x'
F576
sg16
I01
sS'y'
F456
s(dp25
S'y'
F456
sS'x'
F417
sg16
I00
s(dp26
S'y'
F533
sS'x'
F310
sg16
I00
s(dp27
g14
S'curve'
p28
sS'x'
F310
sg16
I01
sS'y'
F681
s(dp29
S'y'
F803
sS'x'
F310
sg16
I00
s(dp30
S'y'
F905
sS'x'
F383
sg16
I00
stp31
s(dp32
g12
((dp33
g14
S'curve'
p34
sS'x'
F553
sg16
I01
sS'y'
F-209
s(dp35
S'y'
F-209
sS'x'
F290
sg16
I00
s(dp36
S'y'
F-109
sS'x'
F278
sg16
I00
s(dp37
g14
S'curve'
p38
sS'x'
F278
sg16
I01
sS'y'
F-43
s(dp39
S'y'
F18
sS'x'
F278
sg16
I00
s(dp40
S'y'
F52
sS'x'
F312
sg16
I00
s(dp41
g14
S'curve'
p42
sS'x'
F351
sg16
I00
sS'y'
F89
s(dp43
g14
S'line'
p44
sS'x'
F739
sg16
I01
sS'y'
F89
s(dp45
S'y'
F89
sS'x'
F866
sg16
I00
s(dp46
S'y'
F44
sS'x'
F886
sg16
I00
s(dp47
g14
S'curve'
p48
sS'x'
F886
sg16
I01
sS'y'
F-23
s(dp49
S'y'
F-113
sS'x'
F886
sg16
I00
s(dp50
S'y'
F-209
sS'x'
F785
sg16
I00
stp51
s(dp52
g12
((dp53
g14
S'curve'
p54
sS'x'
F1014
sg16
I01
sS'y'
F-15
s(dp55
S'y'
F123
sS'x'
F1014
sg16
I00
s(dp56
S'y'
F197
sS'x'
F949
sg16
I00
s(dp57
g14
S'curve'
p58
sS'x'
F731
sg16
I01
sS'y'
F197
s(dp59
g14
S'line'
p60
sS'x'
F465
sg16
I01
sS'y'
F197
s(dp61
S'y'
F197
sS'x'
F364
sg16
I00
s(dp62
S'y'
F190
sS'x'
F327
sg16
I00
s(dp63
g14
S'curve'
p64
sS'x'
F304
sg16
I01
sS'y'
F275
s(dp65
S'y'
F321
sS'x'
F292
sg16
I00
s(dp66
S'y'
F397
sS'x'
F365
sg16
I00
s(dp67
g14
S'curve'
p68
sS'x'
F370
sg16
I00
sS'y'
F400
s(dp69
S'y'
F376
sS'x'
F430
sg16
I00
s(dp70
S'y'
F362
sS'x'
F520
sg16
I00
s(dp71
g14
S'curve'
p72
sS'x'
F587
sg16
I01
sS'y'
F362
s(dp73
S'y'
F362
sS'x'
F813
sg16
I00
s(dp74
S'y'
F482
sS'x'
F959
sg16
I00
s(dp75
g14
S'curve'
p76
sS'x'
F950
sg16
I01
sS'y'
F685
s(dp77
S'y'
F742
sS'x'
F947
sg16
I00
s(dp78
S'y'
F834
sS'x'
F920
sg16
I00
s(dp79
g14
S'curve'
p80
sS'x'
F855
sg16
I00
sS'y'
F883
s(dp81
S'y'
F883
sS'x'
F863
sg16
I00
s(dp82
S'y'
F883
sS'x'
F986
sg16
I00
s(dp83
g14
S'curve'
p84
sS'x'
F997
sg16
I01
sS'y'
F883
s(dp85
g14
S'line'
p86
sS'x'
F1078
sg16
I00
sS'y'
F883
s(dp87
g14
S'line'
p88
sS'x'
F1078
sg16
I00
sS'y'
F977
s(dp89
g14
S'line'
p90
sS'x'
F791
sg16
I01
sS'y'
F977
s(dp91
S'y'
F977
sS'x'
F755
sg16
I00
s(dp92
S'y'
F982
sS'x'
F727
sg16
I00
s(dp93
g14
S'curve'
p94
sS'x'
F691
sg16
I01
sS'y'
F988
s(dp95
S'y'
F994
sS'x'
F655
sg16
I00
s(dp96
S'y'
F1000
sS'x'
F629
sg16
I00
s(dp97
g14
S'curve'
p98
sS'x'
F571
sg16
I01
sS'y'
F1000
s(dp99
S'y'
F1000
sS'x'
F357
sg16
I00
s(dp100
S'y'
F901
sS'x'
F182
sg16
I00
s(dp101
g14
S'curve'
p102
sS'x'
F182
sg16
I01
sS'y'
F680
s(dp103
S'y'
F575
sS'x'
F182
sg16
I00
s(dp104
S'y'
F506
sS'x'
F235
sg16
I00
s(dp105
g14
S'curve'
p106
sS'x'
F296
sg16
I00
sS'y'
F452
s(dp107
S'y'
F372
sS'x'
F214
sg16
I00
s(dp108
S'y'
F345
sS'x'
F186
sg16
I00
s(dp109
g14
S'curve'
p110
sS'x'
F190
sg16
I01
sS'y'
F266
s(dp111
S'y'
F221
sS'x'
F192
sg16
I00
s(dp112
S'y'
F148
sS'x'
F213
sg16
I00
s(dp113
g14
S'curve'
p114
sS'x'
F287
sg16
I00
sS'y'
F116
s(dp115
S'y'
F68
sS'x'
F221
sg16
I00
s(dp116
S'y'
F11
sS'x'
F150
sg16
I00
s(dp117
g14
S'curve'
p118
sS'x'
F150
sg16
I01
sS'y'
F-67
s(dp119
S'y'
F-158
sS'x'
F150
sg16
I00
s(dp120
S'y'
F-316
sS'x'
F214
sg16
I00
s(dp121
g14
S'curve'
p122
sS'x'
F547
sg16
I01
sS'y'
F-316
s(dp123
S'y'
F-316
sS'x'
F901
sg16
I00
s(dp124
S'y'
F-142
sS'x'
F1014
sg16
I00
stp125
stp126
sS'components'
p127
(tsS'anchors'
p128
(tsss."
AnchorPoint: "top" 596 985 basechar 0
LayerCount: 2
Fore
SplineSet
611 905 m 0
 786 905 839 810 839 688 c 0
 839 543 770 461 601 461 c 0
 442 461 344 539 344 689 c 0
 344 811 417 905 611 905 c 0
1031 -10 m 0
 1031 128 966 197 748 197 c 2
 369 197 l 1
 369 197 338 221 338 275 c 0
 338 317 372 353 404 400 c 1
 464 376 545 367 612 367 c 0
 838 367 976 490 967 693 c 0
 964 750 937 834 872 883 c 1
 1095 883 l 1
 1095 977 l 1
 808 977 l 2
 772 977 744 982 708 988 c 0
 672 994 663 1000 605 1000 c 0
 391 1000 216 909 216 688 c 0
 216 583 266 505 327 451 c 1
 255 356 220 325 224 246 c 0
 226 206 254 155 295 128 c 1
 255 105 184 21 184 -62 c 0
 184 -153 248 -309 581 -309 c 0
 935 -309 1031 -137 1031 -10 c 0
587 -204 m 0
 324 -204 312 -114 312 -48 c 0
 312 13 346 57 385 94 c 1
 756 94 l 2
 883 94 903 49 903 -18 c 0
 903 -108 819 -204 587 -204 c 0
EndSplineSet
EndChar

StartChar: germandbls
Encoding: 157 223 113
Width: 1047
VWidth: 0
Flags: W
LayerCount: 2
Fore
SplineSet
484 1286 m 0
 666 1286 713 1214 713 1018 c 1
 667 980 636 962 585 933 c 0
 568 923 557 917 553 914 c 2
 525 897 l 2
 485 873 438 839 410 768 c 1
 410 731 l 1
 435 609 523 587 662 538 c 1
 722 519 783 483 789 401 c 1
 799 388 804 361 804 322 c 0
 804 155 754 95 606 95 c 0
 537 95 473 115 414 156 c 1
 376 66 l 1
 457 7 511 -19 615 -19 c 0
 823 -19 917 89 917 321 c 0
 917 476 851 544 770 597 c 1
 700 640 l 1
 665 661 l 1
 593 707 576 725 569 754 c 1
 612 862 690 913 826 963 c 1
 826 1005 825 1045 823 1082 c 0
 810 1303 707 1397 488 1397 c 0
 257 1397 147 1268 147 1008 c 2
 147 0 l 1
 256 0 l 1
 256 997 l 2
 256 1193 320 1286 484 1286 c 0
EndSplineSet
EndChar

StartChar: greater
Encoding: 30 62 114
Width: 1009
VWidth: 0
Flags: W
LayerCount: 2
Fore
SplineSet
774 596 m 1
 130 1030 l 1
 186 1116 l 1
 899 629 l 1
 899 563 l 1
 186 61 l 1
 130 150 l 1
 774 596 l 1
EndSplineSet
EndChar

StartChar: greaterequal
Encoding: 415 8805 115
Width: 1129
VWidth: 0
Flags: W
LayerCount: 2
Fore
SplineSet
883 723 m 1
 136 369 l 1
 158 274 l 1
 999 678 l 1
 999 768 l 1
 158 1161 l 1
 136 1065 l 1
 883 725 l 1
 883 723 l 1
956 123 m 1
 827 123 l 1
 183 123 l 1
 174 49 l 1
 306 49 l 1
 946 43 l 1
 956 123 l 1
EndSplineSet
EndChar

StartChar: guillemotleft
Encoding: 105 171 116
Width: 967
VWidth: 0
Flags: W
LayerCount: 2
Fore
SplineSet
493 817 m 1
 463 936 l 1
 128 600 l 1
 106 520 l 1
 463 160 l 1
 493 279 l 1
 219 545 l 1
 493 817 l 1
834 817 m 1
 806 936 l 1
 469 600 l 1
 447 520 l 1
 806 160 l 1
 834 279 l 1
 561 545 l 1
 834 817 l 1
EndSplineSet
EndChar

StartChar: guillemotright
Encoding: 121 187 117
Width: 968
VWidth: 0
Flags: W
LayerCount: 2
Fore
SplineSet
831 608 m 1
 502 936 l 1
 472 817 l 1
 747 545 l 1
 472 279 l 1
 502 160 l 1
 859 520 l 1
 831 608 l 1
497 600 m 1
 159 936 l 1
 131 817 l 1
 404 545 l 1
 131 279 l 1
 159 160 l 1
 518 520 l 1
 497 600 l 1
EndSplineSet
EndChar

StartChar: guilsinglleft
Encoding: 406 8249 118
Width: 621
VWidth: 0
Flags: W
LayerCount: 2
Fore
SplineSet
449 123 m 1
 489 236 l 1
 222 526 l 1
 489 823 l 1
 449 934 l 1
 109 573 l 1
 109 483 l 1
 449 123 l 1
EndSplineSet
EndChar

StartChar: guilsinglright
Encoding: 407 8250 119
Width: 620
VWidth: 0
Flags: W
LayerCount: 2
Fore
SplineSet
397 526 m 1
 130 236 l 1
 170 123 l 1
 508 483 l 1
 508 573 l 1
 170 934 l 1
 130 823 l 1
 397 526 l 1
EndSplineSet
EndChar

StartChar: h
Encoding: 72 104 120
Width: 998
VWidth: 0
Flags: HW
PickledData: "(dp1
S'com.typemytype.robofont.layerData'
p2
(dp3
S'b'
(dp4
S'name'
p5
S'h'
sS'lib'
p6
(dp7
sS'unicodes'
p8
(tsS'width'
p9
I998
sS'contours'
p10
((dp11
S'points'
p12
((dp13
S'segmentType'
p14
S'line'
p15
sS'x'
F289
sS'smooth'
p16
I00
sS'y'
F0
s(dp17
g14
S'line'
p18
sS'x'
F161
sg16
I00
sS'y'
F0
s(dp19
g14
S'line'
p20
sS'x'
F161
sg16
I00
sS'y'
F985
s(dp21
g14
S'line'
p22
sS'x'
F275
sg16
I00
sS'y'
F985
s(dp23
g14
S'line'
p24
sS'x'
F284
sg16
I00
sS'y'
F908
s(dp25
S'y'
F969
sS'x'
F393
sg16
I00
s(dp26
S'y'
F1000
sS'x'
F496
sg16
I00
s(dp27
g14
S'curve'
p28
sS'x'
F593
sg16
I01
sS'y'
F1000
s(dp29
S'y'
F1000
sS'x'
F780
sg16
I00
s(dp30
S'y'
F891
sS'x'
F865
sg16
I00
s(dp31
g14
S'curve'
p32
sS'x'
F865
sg16
I01
sS'y'
F663
s(dp33
g14
S'line'
p34
sS'x'
F865
sg16
I00
sS'y'
F0
s(dp35
g14
S'line'
p36
sS'x'
F737
sg16
I00
sS'y'
F0
s(dp37
g14
S'line'
p38
sS'x'
F737
sg16
I01
sS'y'
F668
s(dp39
S'y'
F825
sS'x'
F737
sg16
I00
s(dp40
S'y'
F892
sS'x'
F699
sg16
I00
s(dp41
g14
S'curve'
p42
sS'x'
F580
sg16
I01
sS'y'
F892
s(dp43
S'y'
F892
sS'x'
F506
sg16
I00
s(dp44
S'y'
F865
sS'x'
F409
sg16
I00
s(dp45
g14
S'curve'
p46
sS'x'
F289
sg16
I00
sS'y'
F799
stp47
stp48
sS'components'
p49
(tsS'anchors'
p50
(tsss."
AnchorPoint: "top" 562 985 basechar 0
LayerCount: 2
Fore
SplineSet
279 800 m 1
 279 0 l 1
 151 0 l 1
 151 1308 l 1
 279 1308 l 1
 279 911 l 1
 386 970 483 1000 578 1000 c 0
 764 1000 855 900 855 663 c 2
 855 0 l 1
 727 0 l 1
 727 669 l 2
 727 826 689 893 570 893 c 0
 499 893 409 870 279 800 c 1
EndSplineSet
EndChar

StartChar: hyphen
Encoding: 13 45 121
Width: 750
VWidth: 0
Flags: W
LayerCount: 2
Fore
SplineSet
114 449 m 1
 114 565 l 1
 633 565 l 1
 633 449 l 1
 114 449 l 1
EndSplineSet
EndChar

StartChar: i
Encoding: 73 105 122
Width: 703
VWidth: 0
Flags: HW
PickledData: "(dp1
S'com.typemytype.robofont.layerData'
p2
(dp3
S'b'
(dp4
S'name'
p5
S'i'
sS'lib'
p6
(dp7
sS'unicodes'
p8
(tsS'width'
p9
I703
sS'contours'
p10
(tsS'components'
p11
(tsS'anchors'
p12
(tsss."
AnchorPoint: "bot" 362 0 basechar 0
LayerCount: 2
Fore
SplineSet
103 889 m 1
 295 889 l 1
 295 96 l 1
 103 96 l 1
 103 0 l 1
 615 0 l 1
 615 96 l 1
 423 96 l 1
 423 985 l 1
 103 985 l 1
 103 889 l 1
278 1264 m 0
 278 1208 308 1176 359 1176 c 0
 412 1176 439 1206 439 1266 c 0
 439 1326 412 1356 359 1356 c 0
 308 1356 278 1321 278 1264 c 0
EndSplineSet
EndChar

StartChar: infinity
Encoding: 65540 8734 127
Width: 1319
VWidth: 0
Flags: W
LayerCount: 2
Fore
SplineSet
964 953 m 1
 963 954 l 1
 789 954 721 827 670 707 c 1
 610 838 551 956 373 956 c 0
 202 956 119 814 119 602 c 0
 119 409 188 250 363 250 c 0
 541 250 609 398 659 498 c 1
 735 346 805 249 952 249 c 0
 1111 249 1196 391 1196 599 c 0
 1196 797 1137 953 964 953 c 1
217 599 m 1
 216 599 l 1
 216 732 255 857 372 857 c 1
 468 858 526 795 580 677 c 2
 616 598 l 1
 545 445 497 349 377 349 c 0
 266 349 217 448 217 599 c 1
1099 598 m 1
 1100 597 l 1
 1100 456 1054 349 948 349 c 0
 857 349 809 397 722 597 c 0
 719 602 718 607 715 612 c 1
 788 767 829 858 948 858 c 0
 1049 858 1099 771 1099 598 c 1
EndSplineSet
EndChar

StartChar: integral
Encoding: 412 8747 128
Width: 777
VWidth: 0
Flags: W
LayerCount: 2
Fore
SplineSet
330 1153 m 1
 329 1153 l 1
 329 975 339 313 339 135 c 0
 339 -142 311 -279 159 -279 c 0
 127 -279 95 -273 62 -260 c 1
 37 -367 l 1
 76 -380 119 -387 168 -387 c 0
 413 -387 446 -144 446 133 c 0
 446 310 437 969 437 1147 c 0
 437 1435 463 1565 618 1565 c 0
 650 1565 680 1559 709 1548 c 1
 735 1651 l 1
 697 1664 656 1671 613 1671 c 0
 360 1671 330 1421 330 1153 c 1
EndSplineSet
EndChar

StartChar: j
Encoding: 74 106 129
Width: 689
VWidth: 0
Flags: W
PickledData: "(dp1
S'com.typemytype.robofont.layerData'
p2
(dp3
S'b'
(dp4
S'name'
p5
S'j'
sS'lib'
p6
(dp7
sS'unicodes'
p8
(tsS'width'
p9
I689
sS'contours'
p10
(tsS'components'
p11
(tsS'anchors'
p12
(tsss."
LayerCount: 2
Fore
SplineSet
263 -182 m 0
 216 -182 166 -173 115 -154 c 1
 99 -263 l 1
 154 -284 210 -295 267 -295 c 0
 439 -295 528 -203 528 18 c 2
 528 985 l 1
 176 985 l 1
 176 889 l 1
 400 889 l 1
 400 28 l 2
 400 -123 376 -182 263 -182 c 0
545 1262 m 0
 545 1326 521 1356 464 1356 c 0
 410 1356 383 1326 383 1266 c 0
 383 1205 410 1174 464 1174 c 0
 521 1174 545 1199 545 1262 c 0
EndSplineSet
EndChar

StartChar: k
Encoding: 75 107 130
Width: 1033
VWidth: 0
Flags: HW
PickledData: "(dp1
S'com.typemytype.robofont.layerData'
p2
(dp3
S'b'
(dp4
S'name'
p5
S'k'
sS'lib'
p6
(dp7
sS'unicodes'
p8
(tsS'width'
p9
I1033
sS'contours'
p10
(tsS'components'
p11
(tsS'anchors'
p12
(tsss."
AnchorPoint: "bot" 572 0 basechar 0
AnchorPoint: "top" 486 985 basechar 0
LayerCount: 2
Fore
SplineSet
150 0 m 1
 278 0 l 1
 278 377 l 1
 369 458 l 1
 395 429 l 1
 395 429 587 216 780 0 c 1
 941 0 l 1
 467 517 l 1
 879 985 l 1
 713 985 l 1
 514 760 380 603 278 494 c 1
 278 1308 l 1
 150 1308 l 1
 150 0 l 1
EndSplineSet
EndChar

StartChar: l
Encoding: 76 108 131
Width: 700
VWidth: 0
Flags: W
PickledData: "(dp1
S'com.typemytype.robofont.guides'
p2
(tsS'com.typemytype.robofont.layerData'
p3
(dp4
S'b'
(dp5
S'name'
p6
S'l'
sS'lib'
p7
(dp8
sS'unicodes'
p9
(tsS'width'
p10
I700
sS'contours'
p11
((dp12
S'points'
p13
((dp14
S'segmentType'
p15
S'line'
p16
sS'x'
F134
sS'smooth'
p17
I00
sS'y'
F892
s(dp18
g15
S'line'
p19
sS'x'
F294
sg17
I00
sS'y'
F892
s(dp20
g15
S'line'
p21
sS'x'
F294
sg17
I00
sS'y'
F95
s(dp22
g15
S'line'
p23
sS'x'
F134
sg17
I00
sS'y'
F95
s(dp24
g15
S'line'
p25
sS'x'
F134
sg17
I00
sS'y'
F0
s(dp26
g15
S'line'
p27
sS'x'
F582
sg17
I00
sS'y'
F0
s(dp28
g15
S'line'
p29
sS'x'
F582
sg17
I00
sS'y'
F95
s(dp30
g15
S'line'
p31
sS'x'
F422
sg17
I00
sS'y'
F95
s(dp32
g15
S'line'
p33
sS'x'
F422
sg17
I00
sS'y'
F985
s(dp34
g15
S'line'
p35
sS'x'
F134
sg17
I00
sS'y'
F985
stp36
stp37
sS'components'
p38
(tsS'anchors'
p39
(tsss."
VStem: 96 512
AnchorPoint: "bot" 353 0 basechar 0
AnchorPoint: "top" 546 985 basechar 0
LayerCount: 2
Fore
SplineSet
96 1308 m 1
 96 1210 l 1
 288 1210 l 1
 288 96 l 1
 96 96 l 1
 96 0 l 1
 608 0 l 1
 608 96 l 1
 416 96 l 1
 416 1308 l 1
 96 1308 l 1
EndSplineSet
EndChar

StartChar: less
Encoding: 28 60 132
Width: 1005
VWidth: 0
Flags: W
LayerCount: 2
Fore
SplineSet
233 596 m 1
 874 150 l 1
 819 61 l 1
 108 563 l 1
 108 629 l 1
 819 1116 l 1
 876 1030 l 1
 233 596 l 1
EndSplineSet
EndChar

StartChar: lessequal
Encoding: 414 8804 133
Width: 1127
VWidth: 0
Flags: W
LayerCount: 2
Fore
SplineSet
243 725 m 1
 989 1065 l 1
 968 1161 l 1
 129 768 l 1
 129 680 l 1
 968 274 l 1
 989 369 l 1
 243 725 l 1
940 129 m 1
 296 129 l 1
 168 129 l 1
 177 43 l 1
 820 43 l 1
 949 43 l 1
 940 129 l 1
EndSplineSet
EndChar

StartChar: logicalnot
Encoding: 106 172 134
Width: 1099
VWidth: 0
Flags: W
LayerCount: 2
Fore
SplineSet
115 725 m 1
 115 831 l 1
 966 831 l 1
 966 322 l 1
 848 322 l 1
 848 725 l 1
 115 725 l 1
EndSplineSet
EndChar

StartChar: lozenge
Encoding: 416 9674 135
Width: 1098
VWidth: 0
Flags: W
LayerCount: 2
Fore
SplineSet
528 -33 m 1
 610 47 l 1
 983 721 l 1
 610 1399 l 1
 528 1477 l 1
 110 721 l 1
 249 469.333333333 388.333333333 218 528 -33 c 1
547 1305 m 1
 588 1228 647 1117 726 973 c 2
 863 723 l 1
 717 454 l 2
 643 319 585 214 547 139 c 1
 509 214 450 317 377 452 c 2
 230 723 l 1
 374 986 l 2
 449 1123 507 1229 547 1305 c 1
EndSplineSet
EndChar

StartChar: m
Encoding: 77 109 136
Width: 1510
VWidth: 0
Flags: HW
PickledData: "(dp1
S'com.typemytype.robofont.layerData'
p2
(dp3
S'b'
(dp4
S'name'
p5
S'm'
sS'lib'
p6
(dp7
sS'unicodes'
p8
(tsS'width'
p9
I1510
sS'contours'
p10
(tsS'components'
p11
(tsS'anchors'
p12
(tsss."
AnchorPoint: "top" 758 985 basechar 0
LayerCount: 2
Fore
SplineSet
1074 1000 m 0
 1259 1000 1367 894 1367 671 c 2
 1367 0 l 1
 1239 0 l 1
 1239 672 l 2
 1239 827 1171 893 1068 893 c 0
 1019 893 908 891 811 830 c 1
 813 820 823 728 823 664 c 2
 823 0 l 1
 695 0 l 1
 695 668 l 2
 695 826 656 893 557 893 c 0
 502 893 376 880 279 823 c 1
 279 0 l 1
 151 0 l 1
 151 985 l 1
 269 985 l 1
 274 928 l 1
 369 984 483 1000 564 1000 c 0
 651 1000 724 978 764 918 c 1
 864 991 993 1000 1074 1000 c 0
EndSplineSet
EndChar

StartChar: mu
Encoding: 115 181 137
Width: 985
VWidth: 0
Flags: W
LayerCount: 2
Fore
SplineSet
132 -309 m 1
 133 -309 l 1
 231 -328 l 1
 256 -269 268 -183 268 -68 c 1
 262 55 l 1
 298 8 366 -23 441 -23 c 0
 520 -23 585 4 648 43 c 1
 733 100 l 1
 733 0 l 1
 839 0 l 1
 839 985 l 1
 730 985 l 1
 730 414 l 2
 730 352 724 274 711 180 c 1
 615 120 555 92 454 92 c 0
 321 92 271 177 271 344 c 2
 271 985 l 1
 160 985 l 1
 160 -66 l 2
 160 -162 151 -243 132 -309 c 1
EndSplineSet
EndChar

StartChar: n
Encoding: 78 110 138
Width: 1030
VWidth: 0
Flags: W
PickledData: "(dp1
S'com.typemytype.robofont.guides'
p2
(tsS'com.typemytype.robofont.layerData'
p3
(dp4
S'b'
(dp5
S'name'
p6
S'n'
sS'lib'
p7
(dp8
sS'unicodes'
p9
(tsS'width'
p10
I1030
sS'contours'
p11
(tsS'components'
p12
(tsS'anchors'
p13
(tsss."
HStem: 0 21G<151 279 759 887> 893 107<345.846 705.511> 965 20G<151 258.812>
VStem: 151 128<0 844> 151 105<921 985> 759 128<0 839.375>
AnchorPoint: "bot" 522 0 basechar 0
AnchorPoint: "top" 556 985 basechar 0
LayerCount: 2
Fore
SplineSet
279 822 m 1xd4
 279 0 l 1
 151 0 l 1xd4
 151 985 l 1
 256 985 l 1xac
 265 921 l 1
 400 985 488 1000 585 1000 c 0
 788 1000 887 891 887 663 c 2
 887 0 l 1
 759 0 l 1
 759 668 l 2
 759 825 708 893 572 893 c 0
 498 893 399 888 279 822 c 1xd4
EndSplineSet
EndChar

StartChar: nine
Encoding: 25 57 139
Width: 1002
VWidth: 0
Flags: W
PickledData: "(dp1
S'com.typemytype.robofont.layerData'
p2
(dp3
S'b'
(dp4
S'name'
p5
S'nine'
p6
sS'lib'
p7
(dp8
S'anchors'
p9
(tsS'unicodes'
p10
(tsS'width'
p11
I1158
sS'contours'
p12
(tsS'components'
p13
(tsg5
S'O'
ssg10
(tsg11
I1002
sg12
((dp14
S'points'
p15
((dp16
S'segmentType'
p17
S'curve'
p18
sS'x'
F488
sS'smooth'
p19
I01
sS'y'
F96
s(dp20
S'y'
F96
sS'x'
F738
sg19
I00
s(dp21
S'y'
F264
sS'x'
F808
sg19
I00
s(dp22
g17
S'curve'
p23
sS'x'
F808
sg19
I01
sS'y'
F645
s(dp24
S'y'
F1030
sS'x'
F808
sg19
I00
s(dp25
S'y'
F1198
sS'x'
F735
sg19
I00
s(dp26
g17
S'curve'
p27
sS'x'
F488
sg19
I01
sS'y'
F1198
s(dp28
S'y'
F1198
sS'x'
F241
sg19
I00
s(dp29
S'y'
F1030
sS'x'
F168
sg19
I00
s(dp30
g17
S'curve'
p31
sS'x'
F168
sg19
I01
sS'y'
F645
s(dp32
S'y'
F264
sS'x'
F168
sg19
I00
s(dp33
S'y'
F96
sS'x'
F238
sg19
I00
stp34
s(dp35
g15
((dp36
g17
S'curve'
p37
sS'x'
F488
sg19
I01
sS'y'
F1308
s(dp38
S'y'
F1308
sS'x'
F837
sg19
I00
s(dp39
S'y'
F1065
sS'x'
F936
sg19
I00
s(dp40
g17
S'curve'
p41
sS'x'
F936
sg19
I01
sS'y'
F648
s(dp42
S'y'
F232
sS'x'
F936
sg19
I00
s(dp43
S'y'
F-16
sS'x'
F849
sg19
I00
s(dp44
g17
S'curve'
p45
sS'x'
F488
sg19
I01
sS'y'
F-16
s(dp46
S'y'
F-16
sS'x'
F127
sg19
I00
s(dp47
S'y'
F232
sS'x'
F40
sg19
I00
s(dp48
g17
S'curve'
p49
sS'x'
F40
sg19
I01
sS'y'
F648
s(dp50
S'y'
F1065
sS'x'
F40
sg19
I00
s(dp51
S'y'
F1308
sS'x'
F139
sg19
I00
stp52
stp53
sg13
(tsg9
(tsss."
LayerCount: 2
Fore
SplineSet
713 565 m 1
 713 310 568 104 224 96 c 1
 245 -16 l 1
 624 7 848 186 848 741 c 0
 848 1105 737 1308 465 1308 c 0
 233 1308 96 1144 96 871 c 0
 96 594 242 467 430 467 c 0
 528 467 609 492 713 565 c 1
720 763 m 2
 720 679 l 1
 601 602 532 577 445 577 c 0
 302 577 224 664 224 870 c 0
 224 1095 302 1196 470 1196 c 0
 650 1196 720 1051 720 763 c 2
EndSplineSet
EndChar

StartChar: notequal
Encoding: 413 8800 140
Width: 1152
VWidth: 0
Flags: W
LayerCount: 2
Fore
SplineSet
712 715 m 1
 531 428 l 1
 1021 428 l 1
 1021 334 l 1
 471 334 l 1
 293 53 l 1
 223 111 l 1
 369 334 l 1
 128 334 l 1
 128 428 l 1
 428 428 l 1
 603 715 l 1
 128 715 l 1
 128 807 l 1
 666 807 l 1
 842 1085 l 1
 914 1030 l 1
 771 807 l 1
 1021 807 l 1
 1021 715 l 1
 712 715 l 1
EndSplineSet
EndChar

StartChar: ntilde
Encoding: 175 241 141
Width: 975
VWidth: 0
Flags: W
LayerCount: 2
Fore
SplineSet
555 1002 m 1
 553 1001 l 1
 473 1001 384 967 339 941 c 0
 316 928 287 908 250 883 c 1
 245 985 l 1
 146 985 l 1
 146 0 l 1
 256 0 l 1
 256 510 l 2
 256 613 260 710 269 799 c 1
 364 858 433 886 548 886 c 0
 670 886 720 793 720 640 c 2
 720 1 l 1
 832 1 l 1
 832 556 l 2
 832 591 834 607 821 675 c 0
 816 700 815 719 815 732 c 0
 810 903 715 1002 555 1002 c 1
210 1310 m 1
 210 1314 l 1
 279 1265 l 1
 318 1323 350 1351 378 1351 c 0
 388 1351 402 1345 421 1334 c 2
 480 1298 l 2
 536 1264 576 1245 606 1245 c 0
 660 1245 716 1284 758 1379 c 1
 695 1426 l 1
 657 1370 629 1344 603 1344 c 0
 582 1344 537 1373 503 1393 c 0
 446 1426 403 1443 372 1443 c 0
 319 1443 258 1405 210 1310 c 1
EndSplineSet
EndChar

StartChar: numbersign
Encoding: 3 35 142
Width: 1082
VWidth: 0
Flags: W
LayerCount: 2
Fore
SplineSet
720 449 m 1
 679 92 l 1
 573 92 l 1
 615 449 l 1
 399 449 l 1
 359 92 l 1
 252 92 l 1
 294 449 l 1
 126 449 l 1
 126 553 l 1
 307 553 l 1
 350 928 l 1
 162 928 l 1
 162 1030 l 1
 360 1030 l 1
 399 1364 l 1
 504 1364 l 1
 466 1030 l 1
 681 1030 l 1
 720 1364 l 1
 823 1364 l 1
 786 1030 l 1
 953 1030 l 1
 953 928 l 1
 774 928 l 1
 733 553 l 1
 918 553 l 1
 918 449 l 1
 720 449 l 1
630 553 m 1
 674 928 l 1
 450 928 l 1
 408 553 l 1
 630 553 l 1
EndSplineSet
EndChar

StartChar: o
Encoding: 79 111 143
Width: 1016
VWidth: 0
Flags: W
PickledData: "(dp1
S'name'
p2
S'o'
sS'com.typemytype.robofont.layerData'
p3
(dp4
S'b'
(dp5
g2
S'o'
sS'lib'
p6
(dp7
sS'unicodes'
p8
(tsS'width'
p9
I1016
sS'contours'
p10
(tsS'components'
p11
(tsS'anchors'
p12
(tsssg8
(tsg9
I1017
sg10
(tsg11
(tsg12
(tsS'com.typemytype.robofont.guides'
p13
(ts."
HStem: -16 107<364.617 651.383> 893 107<364.89 651.11>
VStem: 124 128<223.789 758.21> 764 128<223.789 758.21>
AnchorPoint: "bot" 509 0 basechar 0
AnchorPoint: "top" 510 985 basechar 0
LayerCount: 2
Fore
SplineSet
508 893 m 0
 311 893 252 727 252 492 c 0
 252 254 308 91 508 91 c 0
 708 91 764 254 764 492 c 0
 764 727 705 893 508 893 c 0
508 -16 m 0
 241 -16 124 179 124 492 c 0
 124 823 239 1000 508 1000 c 0
 777 1000 892 823 892 492 c 0
 892 179 775 -16 508 -16 c 0
EndSplineSet
EndChar

StartChar: one
Encoding: 17 49 149
Width: 799
VWidth: 0
Flags: W
LayerCount: 2
Fore
SplineSet
499 84 m 1
 499 1285 l 1
 400 1285 l 1
 119 1155 l 1
 120 1154 l 1
 158 1061 l 1
 385 1167 l 1
 385 84 l 1
 171 84 l 1
 171 -16 l 1
 685 -16 l 1
 685 84 l 1
 499 84 l 1
EndSplineSet
EndChar

StartChar: ordfeminine
Encoding: 104 170 150
Width: 740
VWidth: 0
Flags: W
LayerCount: 2
Fore
SplineSet
359 1265 m 1
 360 1264 l 1
 381 1264 l 2
 484 1264 494 1199 496 1083 c 1
 468 1083 382 1085 349 1085 c 1
 205 1078 128 1024 128 881 c 0
 128 753 196 680 316 680 c 0
 382 680 444 707 503 762 c 1
 506 725 517 699 536 683 c 1
 546 683 569 686 605 693 c 1
 598 789 l 1
 584 801 586 814 586 845 c 2
 586 1074 l 2
 586 1286 538 1353 379 1353 c 0
 282 1353 205 1324 149 1265 c 1
 191 1197 l 1
 224 1242 278 1258 359 1265 c 1
337 769 m 2
 338 769 l 2
 254 769 220 798 220 886 c 0
 220 1007 316 1004 424 1004 c 1
 496 1007 l 1
 496 863 l 1
 460 800 407 769 337 769 c 2
EndSplineSet
EndChar

StartChar: ordmasculine
Encoding: 120 186 151
Width: 754
VWidth: 0
Flags: W
LayerCount: 2
Fore
SplineSet
534 1016 m 0
 534 843 504 768 373 768 c 0
 244 768 215 857 215 1016 c 0
 215 1190 246 1264 373 1264 c 0
 501 1264 534 1185 534 1016 c 0
373 1349 m 1
 373 1350 l 1
 193 1350 123 1224 123 1015 c 0
 123 778 216 679 373 679 c 0
 556 679 626 806 626 1017 c 0
 626 1237 553 1349 373 1349 c 1
EndSplineSet
EndChar

StartChar: p
Encoding: 80 112 154
Width: 1010
VWidth: 0
Flags: HW
PickledData: "(dp1
S'com.typemytype.robofont.layerData'
p2
(dp3
S'b'
(dp4
S'name'
p5
S'p'
sS'lib'
p6
(dp7
S'anchors'
p8
(tsS'unicodes'
p9
(tsS'width'
p10
I1017
sS'contours'
p11
(tsS'components'
p12
(tsg5
S'o'
ssg9
(tsg10
I1010
sg11
((dp13
S'points'
p14
((dp15
S'segmentType'
p16
S'curve'
p17
sS'x'
F516
sS'smooth'
p18
I01
sS'y'
F892
s(dp19
S'y'
F892
sS'x'
F319
sg18
I00
s(dp20
S'y'
F727
sS'x'
F260
sg18
I00
s(dp21
g16
S'curve'
p22
sS'x'
F260
sg18
I01
sS'y'
F492
s(dp23
S'y'
F254
sS'x'
F260
sg18
I00
s(dp24
S'y'
F92
sS'x'
F316
sg18
I00
s(dp25
g16
S'curve'
p26
sS'x'
F516
sg18
I01
sS'y'
F92
s(dp27
S'y'
F92
sS'x'
F716
sg18
I00
s(dp28
S'y'
F254
sS'x'
F771.875
sg18
I00
s(dp29
g16
S'curve'
p30
sS'x'
F771.875
sg18
I01
sS'y'
F492
s(dp31
S'y'
F727
sS'x'
F771.875
sg18
I00
s(dp32
S'y'
F892
sS'x'
F713
sg18
I00
stp33
s(dp34
g14
((dp35
g16
S'curve'
p36
sS'x'
F515.875
sg18
I01
sS'y'
F-16
s(dp37
S'y'
F-16
sS'x'
F249
sg18
I00
s(dp38
S'y'
F179
sS'x'
F132
sg18
I00
s(dp39
g16
S'curve'
p40
sS'x'
F132
sg18
I01
sS'y'
F492
s(dp41
S'y'
F823
sS'x'
F132
sg18
I00
s(dp42
S'y'
F1000
sS'x'
F247
sg18
I00
s(dp43
g16
S'curve'
p44
sS'x'
F515.875
sg18
I01
sS'y'
F1000
s(dp45
S'y'
F1000
sS'x'
F784.875
sg18
I00
s(dp46
S'y'
F823
sS'x'
F899.875
sg18
I00
s(dp47
g16
S'curve'
p48
sS'x'
F899.875
sg18
I01
sS'y'
F492
s(dp49
S'y'
F179
sS'x'
F899.875
sg18
I00
s(dp50
S'y'
F-16
sS'x'
F782.875
sg18
I00
stp51
stp52
sg12
(tsg8
(tsss."
AnchorPoint: "top" 510 985 basechar 0
LayerCount: 2
Fore
SplineSet
278 809 m 1
 278 137 l 1
 374 92 439 91 502 91 c 0
 682 91 758 206 758 491 c 0
 758 767 691 893 534 893 c 0
 466 893 387 872 278 809 c 1
278 43 m 1
 278 -389 l 1
 150 -389 l 1
 150 986 l 1
 254 994 l 1
 267 916 l 1
 373 985 467 1000 550 1000 c 0
 750 1000 886 852 886 493 c 0
 886 126 757 -16 520 -16 c 0
 449 -16 357 4 278 43 c 1
EndSplineSet
EndChar

StartChar: paragraph
Encoding: 116 182 155
Width: 1039
VWidth: 0
Flags: W
LayerCount: 2
Fore
SplineSet
889 0 m 1
 889 1434 l 1
 824 1434 l 1
 824 0 l 1
 889 0 l 1
124 981 m 0
 124 659 258 564 529 541 c 1
 529 0 l 1
 594 0 l 1
 594 1434 l 1
 529 1434 l 2
 249 1434 124 1293 124 981 c 0
529 1367 m 1
 529 1368 l 1
 529 606 l 1
 284 626 189 706 189 972 c 0
 189 1294 302 1362 529 1367 c 1
EndSplineSet
EndChar

StartChar: parenleft
Encoding: 8 40 156
Width: 583
VWidth: 0
Flags: W
LayerCount: 2
Fore
SplineSet
436 -305 m 1
 436 -307 l 1
 501 -231 l 1
 338 13 251 278 251 648 c 0
 251 1021 337 1279 501 1528 c 1
 436 1604 l 1
 241 1345 133 1059 133 649 c 0
 133 241 240 -44 436 -305 c 1
EndSplineSet
EndChar

StartChar: parenright
Encoding: 9 41 157
Width: 592
VWidth: 0
Flags: W
LayerCount: 2
Fore
SplineSet
88 -228 m 1
 88 -229 l 1
 152 -305 l 1
 347 -41 456 243 456 646 c 0
 456 1054 348 1339 152 1598 c 1
 88 1525 l 1
 253 1277 340 1016 340 646 c 0
 340 278 252 17 88 -228 c 1
EndSplineSet
EndChar

StartChar: partialdiff
Encoding: 65541 8706 158
Width: 905
VWidth: 0
Flags: W
LayerCount: 2
Fore
SplineSet
447 -13 m 1
 447 -14 l 1
 665 -14 774 128 774 412 c 0
 774 901 650 1141 315 1286 c 1
 274 1190 l 1
 362 1145 423 1109 456 1084 c 0
 565 1001 614 886 666 683 c 1
 613 770 539 814 445 814 c 0
 232 814 125 678 125 407 c 0
 125 150 228 -13 447 -13 c 1
440 714 m 0
 594 714 666 589 666 396 c 0
 666 196 606 87 447 87 c 0
 304 87 232 194 232 407 c 0
 232 608 288 714 440 714 c 0
EndSplineSet
EndChar

StartChar: percent
Encoding: 5 37 159
Width: 1259
VWidth: 0
Flags: W
LayerCount: 2
Fore
SplineSet
905 585 m 1
 904 586 l 1
 760 586 668 470 668 298 c 0
 668 128 752 11 904 11 c 0
 1044 11 1139 126 1139 298 c 0
 1139 464 1048 585 905 585 c 1
903 108 m 0
 812 108 766 187 766 302 c 0
 766 410 815 488 903 488 c 0
 992 488 1042 407 1042 298 c 0
 1042 189 992 108 903 108 c 0
352 1356 m 1
 352 1357 l 1
 209 1357 116 1241 116 1069 c 0
 116 898 203 782 352 782 c 0
 491 782 586 895 586 1069 c 0
 586 1237 499 1356 352 1356 c 1
352 879 m 0
 261 879 215 958 215 1071 c 0
 215 1182 263 1260 352 1260 c 0
 440 1260 488 1177 488 1069 c 0
 488 961 441 879 352 879 c 0
829 1368 m 1
 317 -10 l 1
 416 -25 l 1
 931 1356 l 1
 829 1368 l 1
EndSplineSet
EndChar

StartChar: period
Encoding: 14 46 160
Width: 450
VWidth: 0
Flags: W
LayerCount: 2
Fore
SplineSet
325 240 m 1
 325 0 l 1
 126 0 l 1
 126 240 l 1
 325 240 l 1
EndSplineSet
EndChar

StartChar: periodcentered
Encoding: 117 183 161
Width: 397
VWidth: 0
Flags: W
LayerCount: 2
Fore
SplineSet
281 614 m 0
 281 537 259 502 196 502 c 0
 141 502 113 541 113 618 c 0
 113 696 141 735 196 735 c 0
 253 735 281 695 281 614 c 0
EndSplineSet
EndChar

StartChar: perthousand
Encoding: 405 8240 162
Width: 1456
VWidth: 0
Flags: W
LayerCount: 2
Fore
SplineSet
1107 588 m 1
 1107 586 l 1
 965 586 874 471 874 300 c 0
 874 130 958 13 1107 13 c 0
 1246 13 1337 127 1337 301 c 0
 1337 469 1251 588 1107 588 c 1
1239 301 m 1
 1240 301 l 1
 1240 190 1193 111 1105 111 c 0
 1012 111 972 194 972 314 c 0
 972 417 1019 491 1104 491 c 0
 1192 491 1239 412 1239 301 c 1
352 1359 m 1
 352 1360 l 1
 210 1360 117 1245 117 1072 c 0
 117 901 202 785 352 785 c 0
 491 785 586 898 586 1072 c 0
 586 1241 500 1359 352 1359 c 1
352 882 m 0
 261 882 216 961 216 1074 c 0
 216 1182 263 1263 352 1263 c 0
 440 1263 488 1180 488 1072 c 0
 488 964 441 882 352 882 c 0
396 -25 m 1
 395 -22 l 1
 539 79 646 284 646 521 c 0
 646 637 614 737 561 795 c 1
 531 807 l 1
 386 704 279 502 279 269 c 0
 279 150 309 48 366 -9 c 1
 373 -14 391 -22 396 -25 c 1
354 562 m 1
 353 561 l 1
 353 467 380 408 434 383 c 1
 671 435 907 528 1142 661 c 1
 1142 745 1112 812 1061 837 c 1
 813 782 577 690 354 562 c 1
451 302 m 0
 451 187 497 108 586 108 c 0
 673 108 719 190 719 298 c 0
 719 406 673 488 586 488 c 0
 498 488 451 411 451 302 c 0
EndSplineSet
EndChar

StartChar: pi
Encoding: 65542 960 163
Width: 1205
VWidth: 0
Flags: W
LayerCount: 2
Fore
SplineSet
114 1000 m 1
 113 999 l 1
 122 897 l 1
 179 905 246 909 323 909 c 1
 316 573 298 270 269 0 c 1
 382 0 l 1
 413 297 430 600 435 909 c 1
 793 909 l 1
 793 270 l 2
 793 178 797 88 804 0 c 1
 917 0 l 1
 910 83 906 177 906 280 c 2
 906 910 l 1
 1084 910 l 1
 1084 1019 l 1
 382 1019 l 2
 274 1019 185 1013 114 1000 c 1
EndSplineSet
EndChar

StartChar: plus
Encoding: 11 43 164
Width: 996
VWidth: 0
Flags: W
LayerCount: 2
Fore
SplineSet
550 1010 m 1
 550 645 l 1
 884 645 l 1
 884 541 l 1
 550 541 l 1
 550 176 l 1
 445 176 l 1
 445 541 l 1
 110 541 l 1
 110 645 l 1
 445 645 l 1
 445 1010 l 1
 550 1010 l 1
EndSplineSet
EndChar

StartChar: plusminus
Encoding: 111 177 165
Width: 1142
VWidth: 0
Flags: W
LayerCount: 2
Fore
SplineSet
135 82 m 1
 135 188 l 1
 1008 188 l 1
 1008 82 l 1
 135 82 l 1
625 1042 m 1
 625 719 l 1
 1008 719 l 1
 1008 610 l 1
 625 610 l 1
 625 299 l 1
 518 299 l 1
 518 610 l 1
 135 610 l 1
 135 719 l 1
 518 719 l 1
 518 1042 l 1
 625 1042 l 1
EndSplineSet
EndChar

StartChar: product
Encoding: 65543 8719 166
Width: 1194
VWidth: 0
Flags: W
LayerCount: 2
Fore
SplineSet
392 1260 m 1
 801 1260 l 1
 801 -96 l 1
 915 -96 l 1
 915 1260 l 1
 1094 1260 l 1
 1094 1372 l 1
 102 1372 l 1
 102 1260 l 1
 278 1260 l 1
 278 -96 l 1
 392 -96 l 1
 392 1260 l 1
EndSplineSet
EndChar

StartChar: q
Encoding: 81 113 167
Width: 1008
VWidth: 0
Flags: W
PickledData: "(dp1
S'com.typemytype.robofont.layerData'
p2
(dp3
S'b'
(dp4
S'name'
p5
S'q'
sS'lib'
p6
(dp7
sS'unicodes'
p8
(tsS'width'
p9
I1008
sS'contours'
p10
(tsS'components'
p11
(tsS'anchors'
p12
(tsss."
LayerCount: 2
Fore
SplineSet
732 42 m 1
 732 -389 l 1
 860 -389 l 1
 860 986 l 1
 756 994 l 1
 732 921 l 1
 732 923 l 1
 630 986 544 1000 460 1000 c 0
 260 1000 124 852 124 493 c 0
 124 126 260 -16 497 -16 c 0
 567 -16 658 0 732 42 c 1
503 91 m 0
 323 91 252 206 252 491 c 0
 252 767 319 893 476 893 c 0
 544 893 623 872 732 809 c 1
 732 137 l 1
 644 97 566 91 503 91 c 0
EndSplineSet
EndChar

StartChar: question
Encoding: 31 63 168
Width: 879
VWidth: 0
Flags: W
LayerCount: 2
Fore
SplineSet
346 336 m 1
 345 334 l 1
 365 336 430 335 449 337 c 1
 446 382 445 418 445 443 c 0
 445 585 475 610 597 728 c 1
 649 783 l 2
 713 851 760 932 760 1082 c 0
 760 1274 629 1390 443 1390 c 0
 297 1390 164 1293 96 1209 c 1
 156 1119 l 1
 225 1188 263 1212 291 1229 c 0
 322 1249 379 1270 447 1270 c 0
 573 1270 641 1191 641 1075 c 0
 641 978 571 888 484 789 c 0
 400 694 397 684 377 654 c 0
 358 626 334 567 334 510 c 2
 334 473 l 2
 334 412 338 366 346 336 c 1
317 195 m 1
 317 -6 l 1
 485 -6 l 1
 485 195 l 1
 317 195 l 1
EndSplineSet
EndChar

StartChar: questiondown
Encoding: 125 191 169
Width: 858
VWidth: 0
Flags: W
LayerCount: 2
Fore
SplineSet
521 770 m 1
 524 768 l 1
 471 768 l 2
 460 768 443 767 420 766 c 1
 420 745 422 678 422 659 c 0
 422 515 399 499 270 373 c 1
 177 277 106 193 106 20 c 0
 106 -174 238 -286 425 -286 c 0
 580 -286 699 -194 768 -105 c 1
 707 -15 l 1
 663 -63 597 -109 573 -124 c 0
 545 -141 484 -163 417 -163 c 0
 289 -163 224 -80 224 31 c 0
 224 166 353 274 445 396 c 0
 499 467 532 512 532 613 c 0
 532 676 529 728 521 770 c 1
548 911 m 1
 548 1112 l 1
 380 1112 l 1
 380 911 l 1
 548 911 l 1
EndSplineSet
EndChar

StartChar: quotedbl
Encoding: 2 34 170
Width: 634
VWidth: 0
Flags: W
LayerCount: 2
Fore
SplineSet
125 1411 m 1
 125 1229 l 1
 125 950 l 1
 237 950 l 1
 246 1229 l 1
 246 1411 l 1
 125 1411 l 1
388 1411 m 1
 388 1249 l 1
 388 950 l 1
 503 950 l 1
 503 1217 l 1
 510 1411 l 1
 388 1411 l 1
EndSplineSet
EndChar

StartChar: quotedblleft
Encoding: 398 8220 171
Width: 687
VWidth: 0
Flags: W
LayerCount: 2
Fore
SplineSet
295 1334 m 2
 312 1382 l 1
 313 1382 l 1
 244 1415 l 1
 192 1302 159 1212 144 1145 c 2
 113 1006 l 1
 244 981 l 1
 274 1159 l 1
 264 1217 l 1
 269 1259 277 1285 295 1334 c 2
534 1204 m 1
 539 1238 554 1289 579 1358 c 1
 513 1391 l 1
 458 1277 422 1183 405 1108 c 1
 379 981 l 1
 511 956 l 1
 536 1122 l 1
 536 1141 534 1185 534 1204 c 1
EndSplineSet
EndChar

StartChar: quotedblright
Encoding: 399 8221 172
Width: 680
VWidth: 0
Flags: W
LayerCount: 2
Fore
SplineSet
425 1227 m 1
 450 1384 l 1
 580 1362 l 1
 551 1229 l 2
 535 1154 503 1062 450 952 c 1
 381 985 l 1
 394 1028 415 1064 424 1130 c 1
 424 1178 l 1
 425 1200 425 1216 425 1227 c 1
158 1251 m 1
 182 1411 l 1
 313 1386 l 1
 283 1253 l 1
 270 1186 236 1094 181 977 c 1
 114 1010 l 1
 128 1051 l 2
 144 1097 150 1118 156 1155 c 1
 156 1173 158 1232 158 1251 c 1
EndSplineSet
EndChar

StartChar: quoteleft
Encoding: 395 8216 173
Width: 419
VWidth: 0
Flags: W
LayerCount: 2
Fore
SplineSet
283 1282 m 1
 298 1325 l 1
 312 1364 l 1
 245 1397 l 1
 200 1299 178 1275 145 1128 c 2
 113 987 l 1
 245 963 l 1
 273 1147 l 1
 263 1194 l 1
 268 1226 278 1263 283 1282 c 1
EndSplineSet
EndChar

StartChar: quoteright
Encoding: 396 8217 174
Width: 410
VWidth: 0
Flags: W
LayerCount: 2
Fore
SplineSet
126 1041 m 1
 114 1006 l 1
 115 1006 l 1
 182 973 l 1
 232 1073 264 1160 278 1233 c 1
 313 1382 l 1
 183 1407 l 1
 156 1239 l 1
 158 1159 l 1
 150 1105 143 1082 126 1041 c 1
EndSplineSet
EndChar

StartChar: quotesingle
Encoding: 7 39 175
Width: 371
VWidth: 0
Flags: W
LayerCount: 2
Fore
SplineSet
125 1411 m 1
 125 1239 l 1
 125 950 l 1
 239 950 l 1
 239 1212 l 1
 248 1411 l 1
 125 1411 l 1
EndSplineSet
EndChar

StartChar: r
Encoding: 82 114 176
Width: 675
VWidth: 0
Flags: HW
PickledData: "(dp1
S'com.typemytype.robofont.layerData'
p2
(dp3
S'b'
(dp4
S'name'
p5
S'r'
sS'lib'
p6
(dp7
sS'unicodes'
p8
(tsS'width'
p9
I675
sS'contours'
p10
(tsS'components'
p11
(tsS'anchors'
p12
(tsss."
AnchorPoint: "bot" 431 0 basechar 0
AnchorPoint: "top" 397 985 basechar 0
LayerCount: 2
Fore
SplineSet
278 899 m 1
 273 985 l 1
 151 985 l 1
 151 0 l 1
 279 0 l 1
 279 804 l 1
 334 849 449 893 557 893 c 1
 557 1000 l 1
 467 996 347 952 278 899 c 1
EndSplineSet
EndChar

StartChar: radical
Encoding: 65544 8730 177
Width: 1086
VWidth: 0
Flags: W
LayerCount: 2
Fore
SplineSet
112 846 m 1
 121 756 l 1
 293 778 l 1
 504 -8 l 1
 674 -8 l 1
 983 1372 l 1
 880 1372 l 1
 792 971 l 2
 717 630 655 353 604 98 c 1
 556 170 l 1
 374 885 l 1
 112 846 l 1
EndSplineSet
EndChar

StartChar: registered
Encoding: 108 174 178
Width: 1218
VWidth: 0
Flags: W
LayerCount: 2
Fore
SplineSet
1090 873 m 1
 1089 874 l 1
 1089 1180 892 1405 605 1405 c 0
 328 1405 122 1193 122 874 c 0
 122 570 311 340 605 340 c 0
 886 340 1090 554 1090 873 c 1
1002 871 m 1
 1000 871 l 1
 1000 623 844 428 605 428 c 0
 380 428 211 604 211 874 c 0
 211 1136 374 1319 606 1319 c 0
 835 1319 1002 1139 1002 871 c 1
587 1187 m 2
 430 1187 l 1
 430 564 l 1
 508 564 l 1
 508 808 l 1
 616 808 l 1
 661 723 700 640 733 558 c 1
 812 572 l 1
 791 622 l 2
 769 675 734 742 692 822 c 1
 771 839 817 901 817 1000 c 0
 817 1144 737 1187 587 1187 c 2
740 997 m 2
 740 996 l 2
 740 905 705 887 579 887 c 2
 508 887 l 1
 508 1112 l 1
 573 1112 l 2
 697 1112 740 1101 740 997 c 2
EndSplineSet
EndChar

StartChar: s
Encoding: 83 115 179
Width: 886
VWidth: 0
Flags: HW
PickledData: "(dp1
S'com.typemytype.robofont.layerData'
p2
(dp3
S'b'
(dp4
S'name'
p5
S's'
sS'lib'
p6
(dp7
S'anchors'
p8
(tsS'unicodes'
p9
(tsS'width'
p10
I1017
sS'contours'
p11
(tsS'components'
p12
(tsg5
S'o'
ssg9
(tsg10
I886
sg11
((dp13
S'points'
p14
((dp15
S'segmentType'
p16
S'curve'
p17
sS'x'
F462
sS'smooth'
p18
I01
sS'y'
F-16
s(dp19
S'y'
F-16
sS'x'
F195
sg18
I00
s(dp20
S'y'
F179
sS'x'
F78
sg18
I00
s(dp21
g16
S'curve'
p22
sS'x'
F78
sg18
I01
sS'y'
F492
s(dp23
S'y'
F823
sS'x'
F78
sg18
I00
s(dp24
S'y'
F1000
sS'x'
F193
sg18
I00
s(dp25
g16
S'curve'
p26
sS'x'
F462
sg18
I01
sS'y'
F1000
s(dp27
S'y'
F1000
sS'x'
F731
sg18
I00
s(dp28
S'y'
F823
sS'x'
F846
sg18
I00
s(dp29
g16
S'curve'
p30
sS'x'
F846
sg18
I01
sS'y'
F492
s(dp31
S'y'
F179
sS'x'
F846
sg18
I00
s(dp32
S'y'
F-16
sS'x'
F729
sg18
I00
stp33
s(dp34
g14
((dp35
g16
S'curve'
p36
sS'x'
F462
sg18
I01
sS'y'
F892
s(dp37
S'y'
F892
sS'x'
F265
sg18
I00
s(dp38
S'y'
F727
sS'x'
F206
sg18
I00
s(dp39
g16
S'curve'
p40
sS'x'
F206
sg18
I01
sS'y'
F492
s(dp41
S'y'
F254
sS'x'
F206
sg18
I00
s(dp42
S'y'
F92
sS'x'
F262
sg18
I00
s(dp43
g16
S'curve'
p44
sS'x'
F462
sg18
I01
sS'y'
F92
s(dp45
S'y'
F92
sS'x'
F662
sg18
I00
s(dp46
S'y'
F254
sS'x'
F718
sg18
I00
s(dp47
g16
S'curve'
p48
sS'x'
F718
sg18
I01
sS'y'
F492
s(dp49
S'y'
F727
sS'x'
F718
sg18
I00
s(dp50
S'y'
F892
sS'x'
F659
sg18
I00
stp51
stp52
sg12
(tsg8
(tsss."
AnchorPoint: "bot" 451 0 basechar 0
AnchorPoint: "top" 454 985 basechar 0
LayerCount: 2
Fore
SplineSet
454 91 m 0
 344 91 257 114 192 142 c 1
 170 39 l 1
 250 2 356 -16 448 -16 c 0
 623 -16 762 72 762 273 c 0
 762 434 700 491 547 540 c 2
 400 587 l 2
 300 619 254 648 254 743 c 0
 254 855 349 893 470 893 c 0
 551 893 631 874 685 845 c 1
 709 947 l 1
 628 984 542 1000 451 1000 c 0
 284 1000 129 919 129 752 c 0
 129 571 212 519 362 472 c 2
 512 425 l 2
 593 400 640 360 640 261 c 0
 640 151 575 91 454 91 c 0
EndSplineSet
EndChar

StartChar: section
Encoding: 101 167 180
Width: 935
VWidth: 0
Flags: W
LayerCount: 2
Fore
SplineSet
633 476 m 2
 606 444 l 1
 606 446 l 1
 573 463 530 479 479 500 c 2
 370 545 l 1
 291 574 252 609 252 698 c 0
 252 765 286 818 353 859 c 1
 389 842 532 785 563 771 c 0
 627 742 695 699 695 617 c 1
 694 546 667 516 633 476 c 2
769 200 m 1
 768 199 l 1
 768 288 741 353 687 395 c 1
 764 458 803 532 803 616 c 0
 803 835 675 846 418 959 c 0
 335 995 276 1031 276 1133 c 0
 276 1256 346 1303 479 1303 c 0
 564 1303 645 1277 722 1225 c 1
 768 1313 l 1
 699 1376 602 1407 477 1407 c 0
 284 1407 165 1319 165 1124 c 0
 165 1025 203 952 280 903 c 1
 187 851 141 777 141 682 c 0
 141 519 209 487 410 400 c 2
 550 339 l 2
 626 305 657 275 657 187 c 0
 657 80 591 26 460 26 c 0
 361 26 270 56 185 116 c 1
 142 26 l 1
 222 -50 314 -79 458 -79 c 0
 654 -79 769 8 769 200 c 1
EndSplineSet
EndChar

StartChar: semicolon
Encoding: 27 59 181
Width: 462
VWidth: 0
Flags: W
LayerCount: 2
Fore
SplineSet
145 862 m 1
 145 649 l 1
 320 649 l 1
 320 862 l 1
 145 862 l 1
321 129 m 2
 321 305 l 1
 150 305 l 1
 150 86 l 1
 224 86 l 1
 219 22 190 -51 138 -133 c 1
 184 -186 l 1
 268 -90 321 -2 321 129 c 2
EndSplineSet
EndChar

StartChar: seven
Encoding: 23 55 182
Width: 875
VWidth: 0
Flags: W
LayerCount: 2
Fore
SplineSet
769 1181 m 2
 769 1301 l 1
 106 1301 l 1
 106 1300 106 1261 105 1184 c 1
 655 1184 l 1
 642 1139 626 1090 601 1035 c 2
 520 856 l 2
 344 468 260 230 257 3 c 1
 379 3 l 1
 379 146 430 343 487 500 c 0
 548 667 741 1086 758 1129 c 0
 765 1148 769 1166 769 1181 c 2
EndSplineSet
EndChar

StartChar: six
Encoding: 22 54 183
Width: 998
VWidth: 0
Flags: W
PickledData: "(dp1
S'com.typemytype.robofont.layerData'
p2
(dp3
S'b'
(dp4
S'name'
p5
S'six'
p6
sS'lib'
p7
(dp8
sS'unicodes'
p9
(tsS'width'
p10
I998
sS'contours'
p11
(tsS'components'
p12
(tsS'anchors'
p13
(tsss."
LayerCount: 2
Fore
SplineSet
224 529 m 2
 224 613 l 1
 343 690 412 715 499 715 c 0
 642 715 720 628 720 422 c 0
 720 197 642 96 474 96 c 0
 294 96 224 241 224 529 c 2
231 727 m 1
 242 996 376 1188 720 1196 c 1
 699 1308 l 1
 311 1269 96 1106 96 551 c 0
 96 190 207 -16 479 -16 c 0
 711 -16 848 148 848 421 c 0
 848 698 702 825 514 825 c 0
 416 825 335 800 231 727 c 1
EndSplineSet
EndChar

StartChar: slash
Encoding: 15 47 184
Width: 888
VWidth: 0
Flags: W
LayerCount: 2
Fore
SplineSet
812 1458 m 1
 178 -121 l 1
 99 -84 l 1
 731 1497 l 1
 812 1458 l 1
EndSplineSet
EndChar

StartChar: sterling
Encoding: 97 163 186
Width: 1039
VWidth: 0
Flags: W
LayerCount: 2
Fore
SplineSet
388 42 m 1
 387 41 l 1
 425 41 648 -23 684 -23 c 0
 775 -23 854 3 921 55 c 1
 880 162 l 1
 824 116 762 91 695 91 c 1
 676 93 637 97 585 112 c 2
 537 126 l 1
 484 144 452 151 416 151 c 0
 413 151 410 151 406 151 c 2
 385 150 l 2
 356 148 330 139 306 129 c 1
 306 130 305 131 304 132 c 1
 388 220 432 295 434 419 c 1
 432 461 406 601 405 615 c 1
 720 615 l 1
 720 724 l 1
 383 724 l 1
 368 783 360 848 360 917 c 0
 360 1117 409 1208 565 1217 c 1
 635 1217 l 1
 702 1212 760 1183 810 1128 c 1
 852 1221 l 1
 790 1301 719 1329 591 1329 c 0
 362 1329 248 1203 248 934 c 0
 248 862 256 793 273 726 c 1
 140 726 l 1
 140 617 l 1
 295 617 l 1
 313 540 322 478 322 429 c 0
 319 248 224 176 135 97 c 1
 185 -15 l 1
 226 3 l 1
 270 29 327 42 388 42 c 1
EndSplineSet
EndChar

StartChar: summation
Encoding: 65545 8721 187
Width: 1020
VWidth: 0
Flags: W
LayerCount: 2
Fore
SplineSet
896 1374 m 1
 896 1264 l 1
 277 1264 l 1
 277 1260 l 1
 675 637 l 1
 264 -51 l 1
 264 -55 l 1
 905 -55 l 1
 905 -168 l 1
 122 -168 l 1
 122 -57 l 1
 537 635 l 1
 133 1264 l 1
 133 1374 l 1
 896 1374 l 1
EndSplineSet
EndChar

StartChar: t
Encoding: 84 116 188
Width: 796
VWidth: 0
Flags: HW
PickledData: "(dp1
S'com.typemytype.robofont.layerData'
p2
(dp3
S'b'
(dp4
S'name'
p5
S't'
sS'lib'
p6
(dp7
sS'unicodes'
p8
(tsS'width'
p9
I796
sS'contours'
p10
(tsS'components'
p11
(tsS'anchors'
p12
(tsss."
AnchorPoint: "bot" 502 0 basechar 0
AnchorPoint: "top" 466 985 basechar 0
LayerCount: 2
Fore
SplineSet
495 -17 m 1
 281 -11 232 119 232 388 c 2
 232 889 l 1
 79 889 l 1
 79 985 l 1
 236 985 l 1
 261 1267 l 1
 360 1267 l 1
 360 985 l 1
 668 985 l 1
 668 889 l 1
 360 889 l 1
 360 386 l 2
 360 123 415 92 521 92 c 0
 559 92 616 101 673 118 c 1
 693 18 l 1
 626 -5 556 -17 495 -17 c 1
EndSplineSet
EndChar

StartChar: three
Encoding: 19 51 189
Width: 1002
VWidth: 0
Flags: W
PickledData: "(dp1
S'com.typemytype.robofont.layerData'
p2
(dp3
S'b'
(dp4
S'name'
p5
S'three'
p6
sS'lib'
p7
(dp8
sS'unicodes'
p9
(tsS'width'
p10
I1002
sS'contours'
p11
(tsS'components'
p12
(tsS'anchors'
p13
(tsss."
LayerCount: 2
Fore
SplineSet
569 691 m 1
 728 739 819 820 819 994 c 0
 819 1197 672 1308 448 1308 c 0
 351 1308 245 1289 132 1252 c 1
 159 1145 l 1
 258 1179 356 1196 453 1196 c 0
 610 1196 703 1129 703 985 c 0
 703 786 551 747 289 713 c 1
 298 610 l 1
 347 621 397 627 450 627 c 0
 605 627 755 543 755 360 c 0
 755 150 612 96 446 96 c 0
 362 96 266 104 159 139 c 1
 132 40 l 1
 231 3 334 -16 441 -16 c 0
 664 -16 871 79 871 349 c 0
 871 529 728 677 569 691 c 1
EndSplineSet
EndChar

StartChar: trademark
Encoding: 410 8482 190
Width: 1096
VWidth: 0
Flags: W
LayerCount: 2
Fore
SplineSet
707 737 m 1
 760 737 l 1
 883 1057 l 1
 888 1057 l 1
 888 655 l 1
 956 655 l 1
 956 1268 l 1
 892 1268 l 1
 735 846 l 1
 733 846 l 1
 582 1268 l 1
 517 1268 l 1
 517 655 l 1
 587 655 l 1
 587 1057 l 1
 591 1057 l 1
 707 737 l 1
108 1192 m 1
 243 1192 l 1
 243 655 l 1
 318 655 l 1
 318 1192 l 1
 449 1192 l 1
 449 1268 l 1
 108 1268 l 1
 108 1192 l 1
EndSplineSet
EndChar

StartChar: two
Encoding: 18 50 191
Width: 961
VWidth: 0
Flags: W
LayerCount: 2
Fore
SplineSet
437 1208 m 0
 633 1208 706 1109 706 970 c 0
 706 814 601 693 482 584 c 0
 316 432 133 269 131 0 c 1
 813 0 l 1
 813 100 l 1
 258 100 l 1
 280 240 394 355 503 456 c 0
 663 604 824 754 824 971 c 0
 824 1148 704 1308 453 1308 c 0
 304 1308 241 1286 145 1254 c 1
 172 1157 l 1
 178 1160 299 1208 437 1208 c 0
EndSplineSet
EndChar

StartChar: u
Encoding: 85 117 192
Width: 997
VWidth: 0
Flags: HW
PickledData: "(dp1
S'com.typemytype.robofont.layerData'
p2
(dp3
S'b'
(dp4
S'name'
p5
S'u'
sS'lib'
p6
(dp7
sS'unicodes'
p8
(tsS'width'
p9
I997
sS'contours'
p10
(tsS'components'
p11
(tsS'anchors'
p12
(tsss."
AnchorPoint: "bot" 789 0 basechar 0
AnchorPoint: "top" 510 985 basechar 0
LayerCount: 2
Fore
SplineSet
724 57 m 1
 733 0 l 1
 847 0 l 1
 847 985 l 1
 719 985 l 1
 719 159 l 1
 627 108 554 91 455 91 c 0
 309 91 271 160 271 317 c 2
 271 985 l 1
 143 985 l 1
 143 322 l 2
 143 94 228 -16 415 -16 c 0
 512 -16 615 -4 724 57 c 1
EndSplineSet
EndChar

StartChar: underscore
Encoding: 63 95 197
Width: 1066
VWidth: 0
Flags: W
LayerCount: 2
Fore
SplineSet
100 -219 m 1
 100 -125 l 1
 968 -125 l 1
 968 -219 l 1
 100 -219 l 1
EndSplineSet
EndChar

StartChar: v
Encoding: 86 118 198
Width: 943
VWidth: 0
Flags: W
PickledData: "(dp1
S'com.typemytype.robofont.layerData'
p2
(dp3
S'b'
(dp4
S'name'
p5
S'v'
sS'lib'
p6
(dp7
sS'unicodes'
p8
(tsS'width'
p9
I943
sS'contours'
p10
(tsS'components'
p11
(tsS'anchors'
p12
(tsss."
LayerCount: 2
Fore
SplineSet
476 148 m 1
 725 985 l 1
 861 985 l 1
 545 0 l 1
 408 0 l 1
 82 985 l 1
 217 985 l 1
 476 148 l 1
EndSplineSet
EndChar

StartChar: w
Encoding: 87 119 199
Width: 1338
VWidth: 0
Flags: HW
PickledData: "(dp1
S'com.typemytype.robofont.guides'
p2
(tsS'com.typemytype.robofont.layerData'
p3
(dp4
S'b'
(dp5
S'name'
p6
S'w'
sS'lib'
p7
(dp8
sS'unicodes'
p9
(tsS'width'
p10
I1338
sS'contours'
p11
((dp12
S'points'
p13
((dp14
S'segmentType'
p15
S'line'
p16
sS'x'
F320
sS'smooth'
p17
I00
sS'y'
F0
s(dp18
g15
S'line'
p19
sS'x'
F153
sg17
I00
sS'y'
F0
s(dp20
g15
S'line'
p21
sS'x'
F-103
sg17
I00
sS'y'
F985
s(dp22
g15
S'line'
p23
sS'x'
F48
sg17
I00
sS'y'
F985
s(dp24
g15
S'line'
p25
sS'x'
F240
sg17
I00
sS'y'
F140
s(dp26
g15
S'line'
p27
sS'x'
F452
sg17
I00
sS'y'
F862
s(dp28
g15
S'line'
p29
sS'x'
F606
sg17
I00
sS'y'
F862
s(dp30
g15
S'line'
p31
sS'x'
F834
sg17
I00
sS'y'
F145
s(dp32
g15
S'line'
p33
sS'x'
F1015
sg17
I00
sS'y'
F985
s(dp34
g15
S'line'
p35
sS'x'
F1165
sg17
I00
sS'y'
F985
s(dp36
g15
S'line'
p37
sS'x'
F921
sg17
I00
sS'y'
F0
s(dp38
g15
S'line'
p39
sS'x'
F763
sg17
I00
sS'y'
F0
s(dp40
g15
S'line'
p41
sS'x'
F530
sg17
I00
sS'y'
F711
stp42
stp43
sS'components'
p44
(tsS'anchors'
p45
((dp46
S'y'
F985
sS'x'
F719
sg6
S'top'
p47
stp48
sss."
AnchorPoint: "top" 671 985 basechar 0
LayerCount: 2
Fore
SplineSet
736 763 m 1
 951 104 l 1
 1128 985 l 1
 1253 985 l 1
 1037 0 l 1
 867 0 l 1
 677 616 l 1
 474 0 l 1
 304 0 l 1
 85 985 l 1
 210 985 l 1
 399 104 l 1
 618 763 l 1
 736 763 l 1
EndSplineSet
EndChar

StartChar: x
Encoding: 88 120 200
Width: 983
VWidth: 0
Flags: W
LayerCount: 2
Fore
SplineSet
730 0 m 1
 492 410 l 1
 257 0 l 1
 129 0 l 1
 435 504 l 1
 141 985 l 1
 267 985 l 1
 492 596 l 1
 714 985 l 1
 838 985 l 1
 552 504 l 1
 857 0 l 1
 730 0 l 1
EndSplineSet
EndChar

StartChar: y
Encoding: 89 121 201
Width: 994
VWidth: 0
Flags: HW
PickledData: "(dp1
S'com.typemytype.robofont.layerData'
p2
(dp3
S'b'
(dp4
S'name'
p5
S'y'
sS'lib'
p6
(dp7
sS'unicodes'
p8
(tsS'width'
p9
I994
sS'contours'
p10
(tsS'components'
p11
(tsS'anchors'
p12
(tsss."
AnchorPoint: "top" 516 985 basechar 0
LayerCount: 2
Fore
SplineSet
303 -390 m 0
 450 -390 504 -254 586 -16 c 2
 932 985 l 1
 796 985 l 1
 534 187 l 1
 534 187 221 948 207 985 c 1
 70 985 l 1
 475 26 l 1
 448 -55 l 2
 410 -169 385 -279 294 -279 c 0
 264 -279 219 -270 159 -252 c 1
 158 -253 l 1
 138 -355 l 1
 198 -378 252 -390 303 -390 c 0
EndSplineSet
EndChar

StartChar: yen
Encoding: 99 165 203
Width: 1083
VWidth: 0
Flags: W
LayerCount: 2
Fore
SplineSet
205 379 m 1
 489 379 l 1
 489 2 l 1
 599 2 l 1
 599 377 l 1
 879 377 l 1
 879 481 l 1
 599 481 l 1
 599 582 l 1
 610 645 l 1
 879 645 l 1
 879 750 l 1
 657 750 l 1
 974 1366 l 1
 849 1366 l 1
 849 1366 749 1162 548 755 c 1
 543 755 l 1
 242 1368 l 1
 109 1368 l 1
 430 752 l 1
 205 752 l 1
 205 647 l 1
 476 647 l 1
 489 584 l 1
 489 483 l 1
 205 483 l 1
 205 379 l 1
EndSplineSet
EndChar

StartChar: z
Encoding: 90 122 204
Width: 861
VWidth: 0
Flags: HW
PickledData: "(dp1
S'com.typemytype.robofont.layerData'
p2
(dp3
S'b'
(dp4
S'name'
p5
S'z'
sS'lib'
p6
(dp7
sS'unicodes'
p8
(tsS'width'
p9
I861
sS'contours'
p10
(tsS'components'
p11
(tsS'anchors'
p12
(tsss."
AnchorPoint: "bot" 462 0 basechar 0
AnchorPoint: "top" 466 985 basechar 0
LayerCount: 2
Fore
SplineSet
574 889 m 1
 163 889 l 1
 163 985 l 1
 703 985 l 1
 713 900 l 1
 271 96 l 1
 728 96 l 1
 728 0 l 1
 144 0 l 1
 130 102 l 1
 574 889 l 1
EndSplineSet
EndChar

StartChar: zero
Encoding: 16 48 205
Width: 1011
VWidth: 0
Flags: W
PickledData: "(dp1
S'com.typemytype.robofont.layerData'
p2
(dp3
S'b'
(dp4
S'name'
p5
S'zero'
p6
sS'lib'
p7
(dp8
sS'unicodes'
p9
(tsS'width'
p10
I1011
sS'contours'
p11
(tsS'components'
p12
(tsS'anchors'
p13
(tsss."
LayerCount: 2
Fore
SplineSet
512 1208 m 0
 738 1199 768 986 768 650 c 0
 768 406 769 92 512 92 c 1
 285 101 254 310 254 646 c 0
 254 929 271 1208 502 1208 c 0
 506 1208 508 1208 512 1208 c 0
138 646 m 0
 138 293 186 -16 512 -16 c 0
 833 -16 884 289 884 646 c 0
 884 1003 835 1308 512 1308 c 0
 195 1308 138 1030 138 646 c 0
EndSplineSet
EndChar

StartChar: cedilla
Encoding: 118 184 206
Width: 936
VWidth: 0
Flags: HW
LayerCount: 2
Fore
SplineSet
478 -117 m 5
 480 -119 l 5
 491 -80 l 5
 457 -80 422 -83 387 -90 c 5
 386 -186 l 5
 415 -189 438 -193 453 -198 c 5
 520 -198 555 -221 555 -284 c 4
 555 -341 526 -372 471 -372 c 6
 452 -372 l 5
 414 -369 385 -362 366 -351 c 5
 351 -431 l 5
 395 -450 440 -461 478 -461 c 4
 583 -461 648 -396 648 -279 c 4
 648 -172 581 -117 478 -117 c 5
EndSplineSet
EndChar

StartChar: acute
Encoding: 114 180 207
Width: 410
VWidth: 0
Flags: HW
AnchorPoint: "top" 172.5 880 mark 0
LayerCount: 2
Fore
SplineSet
112.66015625 1022.24511719 m 1
 166.3359375 973.153320312 l 1
 166.3359375 973.153320312 319.775390625 1116.96875 366.848632812 1174.49316406 c 2
 463.779296875 1282.94335938 l 1
 358 1362.54003906 l 1
 112.66015625 1022.24511719 l 1
EndSplineSet
EndChar

StartChar: grave
Encoding: 64 96 208
Width: 486
VWidth: 0
Flags: HW
AnchorPoint: "top" 369.5 880 mark 0
LayerCount: 2
Fore
SplineSet
419 1022 m 1
 366 973 l 1
 366 973 214 1106 167 1164 c 2
 68 1283 l 1
 174 1363 l 1
 419 1022 l 1
EndSplineSet
EndChar

StartChar: dieresis
Encoding: 102 168 209
Width: 450
VWidth: 0
Flags: W
HStem: 1049 149<-70.167 98.833 346.833 513.833>
VStem: -70.167 169<1049 1198> 346.833 167<1049 1198>
AnchorPoint: "top" 224.5 880 mark 0
LayerCount: 2
Fore
SplineSet
513.833007812 1198 m 1
 513.833007812 1049 l 1
 346.833007812 1049 l 1
 346.833007812 1198 l 1
 513.833007812 1198 l 1
98.8330078125 1198 m 1
 98.8330078125 1049 l 1
 -70.1669921875 1049 l 1
 -70.1669921875 1198 l 1
 98.8330078125 1198 l 1
EndSplineSet
EndChar

StartChar: caron
Encoding: 360 711 210
Width: 410
VWidth: 0
Flags: HW
AnchorPoint: "top" 172.5 880 mark 0
LayerCount: 2
Fore
SplineSet
164 1106 m 1
 355.609375 1363 l 1
 443.609375 1303 l 1
 371.609375 1205 294.609375 1113 215.609375 1022 c 0
 199.342671522 1002.86270179 181.814589235 993.341092602 164.311082241 993.341092602 c 0
 146.749735355 993.341092602 129.213126447 1002.92573359 113 1022 c 0
 34 1113 -43 1205 -115 1303 c 1
 -27 1363 l 1
 164 1106 l 1
EndSplineSet
EndChar

StartChar: circumflex
Encoding: 359 710 211
Width: 869
VWidth: 0
Flags: W
HStem: 1022 341
VStem: 136 597
AnchorPoint: "top" 441.5 880 mark 0
LayerCount: 2
Fore
SplineSet
435 1260 m 1
 222 1022 l 1
 136 1102 l 1
 218.828650049 1195.07549335 281.785006983 1266.87541486 382 1363 c 1
 487 1363 l 1
 586.926917756 1267.15173195 650.337250547 1194.88906897 733 1102 c 1
 647 1022 l 1
 435 1260 l 1
EndSplineSet
EndChar

